<?xml version="1.0" encoding="utf-8"?>
<!-- Generator: Adobe Illustrator 24.0.1, SVG Export Plug-In . SVG Version: 6.00 Build 0)  -->
<svg version="1.1" id="Layer_1" xmlns="http://www.w3.org/2000/svg" xmlns:xlink="http://www.w3.org/1999/xlink" x="0px" y="0px"
	 viewBox="0 0 1870 638.1" style="enable-background:new 0 0 1870 638.1;" xml:space="preserve">
<style type="text/css">
	.st0{fill:#B2B2B2;}
	.st1{fill:#99503A;}
	.st2{fill:#8C30AA;}
	.st3{fill:#22BBAD;}
	.st4{fill:#16487D;}
	.st5{fill:#1A2A57;}
	.st6{fill:#FAA61A;}
	.st7{fill:#E4414B;}
	.st8{fill:#C46F49;}
	.st9{fill:#231F20;}
	.st10{fill:#D1D3D4;}
	.st11{opacity:0.55;}
	.st12{fill:#FFFFFF;}
	.st13{fill:url(#SVGID_1_);}
	.st14{fill:#808285;}
	.st15{opacity:0.5;fill:#F1F2F2;enable-background:new    ;}
	.st16{fill:#D13924;}
	.st17{fill:#E2DD17;}
	.st18{fill:#25CE31;}
	.st19{fill:none;stroke:#D1D3D4;stroke-width:0.2909;stroke-miterlimit:10;}
	.st20{fill:#007897;}
	.st21{fill:#A7A9AC;}
	.st22{opacity:8.000000e-02;}
	.st23{fill:#0E617E;}
	.st24{fill:#77C043;}
	.st25{fill:#00ADE4;}
	.st26{opacity:0.5;fill:#007897;enable-background:new    ;}
	.st27{opacity:0.5;fill:#D1D3D4;enable-background:new    ;}
	.st28{fill:none;stroke:#D1D3D4;stroke-width:0.4531;stroke-miterlimit:10;}
	.st29{opacity:0.5;fill:#E5E5E5;enable-background:new    ;}
	.st30{fill:#E5E5E5;}
	.st31{fill:#333333;}
	.st32{filter:url(#Adobe_OpacityMaskFilter);}
	.st33{opacity:0.75;mask:url(#SVGID_2_);}
	.st34{filter:url(#Adobe_OpacityMaskFilter_1_);}
	.st35{opacity:0.75;mask:url(#SVGID_5_);}
	.st36{fill:#989898;}
	.st37{fill:#808080;}
	.st38{fill:#F1F1F1;}
	.st39{opacity:0.3;fill:#E5E5E5;enable-background:new    ;}
	.st40{fill:#666666;}
	.st41{opacity:0.1;fill:#808080;enable-background:new    ;}
	.st42{fill:#00467F;}
	.st43{fill:none;stroke:#000000;stroke-width:1.4148;stroke-miterlimit:10;}
	.st44{opacity:0.2;fill:#B2B2B2;enable-background:new    ;}
	.st45{fill:none;stroke:#E5E5E5;stroke-width:3.1138;stroke-miterlimit:10;}
	.st46{opacity:0.5;}
	.st47{fill:#03D8FE;}
</style>
<rect x="1336.2" y="410.9" class="st0" width="398.3" height="227.8"/>
<rect x="992.4" y="470.4" class="st1" width="327.4" height="170.5"/>
<g>
	
		<image style="overflow:visible;opacity:0.2;enable-background:new    ;" width="104" height="215" xlink:href="F5BDC3DE3B42DB04.png"  transform="matrix(0.9904 0 0 0.9904 977.5845 259.1182)">
	</image>
	<g>
		<path class="st2" d="M1065.8,455.1h-73.4V274.7c0-2.4,1.9-4.3,4.3-4.3h64.9c2.4,0,4.3,1.9,4.3,4.3L1065.8,455.1L1065.8,455.1z"/>
	</g>
</g>
<g>
	
		<image style="overflow:visible;opacity:0.2;enable-background:new    ;" width="84" height="215" xlink:href="F5BDC3DE3B42DB05.png"  transform="matrix(0.9881 0 0 0.9881 1244.5845 259.3643)">
	</image>
	<g>
		<path class="st3" d="M1312.7,455.1h-53.1V270.4h48.8c2.4,0,4.3,1.9,4.3,4.3L1312.7,455.1L1312.7,455.1z"/>
	</g>
</g>
<g>
	
		<image style="overflow:visible;opacity:0.2;enable-background:new    ;" width="105" height="250" xlink:href="F5BDC3DE3B42DB03.png"  transform="matrix(0.9905 0 0 0.9905 1049.5845 224.275)">
	</image>
	<g>
		<path class="st4" d="M1138.1,455.1h-73.4V239.7c0-2.4,1.9-4.3,4.3-4.3h64.9c2.4,0,4.3,1.9,4.3,4.3v215.4H1138.1z"/>
	</g>
</g>
<g>
	
		<image style="overflow:visible;opacity:0.2;enable-background:new    ;" width="83" height="232" xlink:href="F5BDC3DE3B42DB0C.png"  transform="matrix(0.988 0 0 0.988 1121.5845 242.4821)">
	</image>
	<g>
		<rect x="1136.9" y="253.6" class="st5" width="51.9" height="201.6"/>
	</g>
</g>
<g>
	
		<image style="overflow:visible;opacity:0.2;enable-background:new    ;" width="104" height="175" xlink:href="F5BDC3DE3B42DB0F.png"  transform="matrix(0.9904 0 0 0.9904 1171.5845 482.9258)">
	</image>
	<g>
		<path class="st4" d="M1259.5,638.7h-73.4V494.5h68.3c2.8,0,5.1,2.3,5.1,5.1V638.7z"/>
	</g>
</g>
<g>
	
		<image style="overflow:visible;opacity:0.2;enable-background:new    ;" width="105" height="156" xlink:href="F5BDC3DE3B42DB0D.png"  transform="matrix(0.9905 0 0 0.9905 1026.5845 501.8274)">
	</image>
	<g>
		<rect x="1041.8" y="513.8" class="st6" width="73.4" height="124.8"/>
	</g>
</g>
<rect x="992.4" y="499.2" class="st7" width="49.4" height="139.5"/>
<g>
	
		<image style="overflow:visible;opacity:0.2;enable-background:new    ;" width="105" height="184" xlink:href="F5BDC3DE3B42DB02.png"  transform="matrix(0.9905 0 0 0.9905 1100.5845 473.9607)">
	</image>
	<g>
		<path class="st5" d="M1189.3,638.7h-73.4V491.3c0-2.8,2.3-5.1,5.1-5.1h63.2c2.8,0,5.1,2.3,5.1,5.1L1189.3,638.7L1189.3,638.7z"/>
	</g>
</g>
<g>
	
		<image style="overflow:visible;opacity:0.2;enable-background:new    ;" width="84" height="158" xlink:href="F5BDC3DE3B42DB06.png"  transform="matrix(0.9881 0 0 0.9881 1244.5845 500.025)">
	</image>
	<g>
		<path class="st5" d="M1312.7,638.7h-53.1V511.8h47.9c2.8,0,5.1,2.3,5.1,5.1L1312.7,638.7L1312.7,638.7z"/>
	</g>
</g>
<rect x="980.9" y="455.1" class="st8" width="346.7" height="15.3"/>
<g>
	
		<image style="overflow:visible;opacity:0.2;enable-background:new    ;" width="48" height="487" xlink:href="F5BDC3DE3B42DB07.png"  transform="matrix(0.9792 0 0 0.9792 1304.5845 175.1574)">
	</image>
	<g>
		<rect x="1319.1" y="182.8" class="st8" width="17.1" height="456.3"/>
	</g>
</g>
<g>
	
		<image style="overflow:visible;opacity:0.2;enable-background:new    ;" width="49" height="487" xlink:href="846D4F1E90A9A7E3.png"  transform="matrix(0.9796 0 0 0.9796 951.5845 175.0539)">
	</image>
	<g>
		<rect x="966.9" y="182.8" class="st8" width="17.1" height="456.3"/>
	</g>
</g>
<g>
	
		<image style="overflow:visible;opacity:0.2;enable-background:new    ;" width="429" height="46" xlink:href="846D4F1E90A9A7E1.png"  transform="matrix(0.9783 0 0 0.9783 943.7475 155.5845)">
	</image>
	<g>
		<rect x="955" y="167.4" class="st8" width="397.6" height="15.5"/>
	</g>
</g>
<g>
	
		<image style="overflow:visible;opacity:0.35;enable-background:new    ;" width="1197" height="259" xlink:href="846D4F1E90A9A7E7.png"  transform="matrix(0.9961 0 0 0.9961 1.8108 408)">
	</image>
	<g>
		<polygon class="st8" points="24.4,638.7 196.6,429.7 998.8,429.7 1171.9,638.7 		"/>
	</g>
</g>
<g>
	
		<image style="overflow:visible;opacity:0.2;enable-background:new    ;" width="515" height="327" xlink:href="846D4F1E90A9A7E2.png"  transform="matrix(0.9969 0 0 0.9969 455.7328 112.4453)">
	</image>
	<g>
		<path class="st9" d="M939.5,422.5H484.3c-8.8,0-16-7.2-16-16V139.1c0-8.8,7.2-16,16-16h455.2c8.8,0,16,7.2,16,16v267.4
			C955.5,415.4,948.4,422.5,939.5,422.5z"/>
	</g>
</g>
<g>
	<g>
		<rect x="491.4" y="147.7" class="st10" width="438.5" height="246.5"/>
	</g>
	<g class="st11">
		<rect x="491.4" y="147.7" class="st12" width="438.5" height="246.5"/>
	</g>
</g>
<g>
	
		<image style="overflow:visible;opacity:0.2;enable-background:new    ;" width="140" height="77" xlink:href="846D4F1E90A9A7FD.png"  transform="matrix(0.987 0 0 0.987 643.7939 408.3849)">
	</image>
	<g>
		
			<linearGradient id="SVGID_1_" gradientUnits="userSpaceOnUse" x1="712.9" y1="212.9" x2="712.9" y2="253.5" gradientTransform="matrix(1 0 0 -1 0 676)">
			<stop  offset="0" style="stop-color:#E6E7E8"/>
			<stop  offset="1" style="stop-color:#A7A9AC"/>
		</linearGradient>
		<polygon class="st13" points="669.7,422.5 660.9,463.1 764.9,463.1 750.8,422.5 		"/>
	</g>
</g>
<circle class="st14" cx="712.9" cy="136.7" r="2.3"/>
<rect x="529.1" y="158.9" class="st12" width="367.6" height="224.1"/>
<rect x="529.1" y="158.3" class="st15" width="367.6" height="14.9"/>
<circle class="st16" cx="535.6" cy="165.6" r="2.4"/>
<circle class="st17" cx="543.9" cy="165.6" r="2.4"/>
<circle class="st18" cx="552.3" cy="165.6" r="2.4"/>
<path class="st19" d="M798.7,169.5H627.1c-2,0-3.7-1.7-3.7-3.7l0,0c0-2,1.7-3.7,3.7-3.7h171.6c2,0,3.7,1.7,3.7,3.7l0,0
	C802.3,167.8,800.7,169.5,798.7,169.5z"/>
<rect x="533.2" y="179.2" class="st20" width="357" height="9.3"/>
<g>
	
		<image style="overflow:visible;opacity:0.2;enable-background:new    ;" width="86" height="207" xlink:href="846D4F1E90A9A7FE.png"  transform="matrix(0.9884 0 0 0.9884 814.7924 182.4959)">
	</image>
	<g>
		<rect x="824.6" y="191.9" class="st12" width="65.2" height="185.1"/>
	</g>
</g>
<rect x="830.6" y="210.2" class="st21" width="51.7" height="3"/>
<rect x="830.6" y="199.1" class="st21" width="32.7" height="3"/>
<rect x="830.6" y="216.7" class="st21" width="51.7" height="3"/>
<rect x="830.6" y="223.2" class="st21" width="51.7" height="3"/>
<rect x="830.6" y="229.7" class="st21" width="51.7" height="3"/>
<rect x="830.6" y="245" class="st21" width="51.7" height="3"/>
<rect x="830.6" y="251.5" class="st21" width="51.7" height="3"/>
<rect x="830.6" y="258" class="st21" width="51.7" height="3"/>
<rect x="830.6" y="264.5" class="st21" width="51.7" height="3"/>
<rect x="830.6" y="279.8" class="st21" width="51.7" height="3"/>
<rect x="830.6" y="286.3" class="st21" width="51.7" height="3"/>
<rect x="830.6" y="292.8" class="st21" width="51.7" height="3"/>
<rect x="830.6" y="299.3" class="st21" width="51.7" height="3"/>
<rect x="830.6" y="314.7" class="st21" width="51.7" height="3"/>
<rect x="830.6" y="321.2" class="st21" width="51.7" height="3"/>
<rect x="830.6" y="327.7" class="st21" width="51.7" height="3"/>
<rect x="830.6" y="334.2" class="st21" width="51.7" height="3"/>
<g class="st22">
	
		<image style="overflow:visible;opacity:0.2;enable-background:new    ;" width="76" height="62" xlink:href="846D4F1E90A9A7FF.png"  transform="matrix(0.9839 0 0 0.9839 588.2666 239.1537)">
	</image>
	<g>
		<rect x="592.5" y="243.9" class="st23" width="65.8" height="51.5"/>
	</g>
</g>
<g class="st22">
	
		<image style="overflow:visible;opacity:0.2;enable-background:new    ;" width="76" height="62" xlink:href="846D4F1E90A9A7E4.png"  transform="matrix(0.9839 0 0 0.9839 664.2666 239.1537)">
	</image>
	<g>
		<rect x="668.5" y="243.9" class="st20" width="65.8" height="51.5"/>
	</g>
</g>
<g class="st22">
	
		<image style="overflow:visible;opacity:0.2;enable-background:new    ;" width="76" height="62" xlink:href="846D4F1E90A9A7E5.png"  transform="matrix(0.9839 0 0 0.9839 740.2666 239.1537)">
	</image>
	<g>
		<rect x="744.6" y="243.9" class="st20" width="65.8" height="51.5"/>
	</g>
</g>
<g class="st22">
	
		<image style="overflow:visible;opacity:0.2;enable-background:new    ;" width="76" height="61" xlink:href="846D4F1E90A9A7E6.png"  transform="matrix(0.9836 0 0 0.9836 588.2766 299.1537)">
	</image>
	<g>
		<rect x="592.5" y="303.3" class="st20" width="65.8" height="51.5"/>
	</g>
</g>
<g class="st22">
	
		<image style="overflow:visible;opacity:0.2;enable-background:new    ;" width="76" height="61" xlink:href="846D4F1E90A9A81A.png"  transform="matrix(0.9836 0 0 0.9836 664.2766 299.1537)">
	</image>
	<g>
		<rect x="668.5" y="303.3" class="st20" width="65.8" height="51.5"/>
	</g>
</g>
<g class="st22">
	
		<image style="overflow:visible;opacity:0.2;enable-background:new    ;" width="76" height="61" xlink:href="846D4F1E90A9A819.png"  transform="matrix(0.9836 0 0 0.9836 740.2766 299.1537)">
	</image>
	<g>
		<rect x="744.6" y="303.3" class="st20" width="65.8" height="51.5"/>
	</g>
</g>
<circle class="st7" cx="556.2" cy="241.7" r="6.3"/>
<circle class="st6" cx="556.2" cy="259.8" r="6.3"/>
<circle class="st3" cx="556.2" cy="277.9" r="6.3"/>
<circle class="st24" cx="556.2" cy="296" r="6.3"/>
<circle class="st25" cx="556.2" cy="314.1" r="6.3"/>
<rect x="641.4" y="196.5" class="st26" width="118.5" height="11.3"/>
<rect x="622.8" y="211.1" class="st27" width="155.7" height="11.1"/>
<line class="st28" x1="622.5" y1="235.4" x2="779.5" y2="235.4"/>
<g>
	<path class="st21" d="M774.6,230.4c0.4-0.5,0.6-1.1,0.6-1.8c-0.1-1.2-1.1-2.2-2.3-2.3c-1.6-0.1-2.9,1.2-2.7,2.7
		c0.1,1.2,1.1,2.2,2.3,2.3c0.7,0.1,1.3-0.2,1.8-0.6l1.5,1.5c0.1,0.1,0.3,0.1,0.4,0l0,0c0.1-0.1,0.1-0.3,0-0.4L774.6,230.4z
		 M772.7,230.9c-1.1,0-2-0.9-2-2s0.9-2,2-2s2,0.9,2,2S773.8,230.9,772.7,230.9z"/>
</g>
<g>
	
		<image style="overflow:visible;opacity:0.2;enable-background:new    ;" width="306" height="366" xlink:href="846D4F1E90A9A806.png"  transform="matrix(0.9967 0 0 0.9967 163.3728 211.4708)">
	</image>
	<g>
		<path class="st4" d="M450.9,559.3H191.3c-7.4,0-13.5-6-13.5-13.5V236.3c0-7.4,6-13.5,13.5-13.5h259.5c1.2,0,2.3,1,2.3,2.3V557
			C453.2,558.3,452.1,559.3,450.9,559.3z"/>
	</g>
</g>
<polygon class="st5" points="205.9,223.2 205.9,166.8 234.7,182.8 263.6,166.2 263.6,223.2 "/>
<rect x="231.3" y="262.3" class="st29" width="169.8" height="26.2"/>
<rect x="231.3" y="300" class="st30" width="169.8" height="7.6"/>
<rect x="231.3" y="319.1" class="st30" width="169.8" height="7.6"/>
<g>
	
		<image style="overflow:visible;opacity:0.2;enable-background:new    ;" width="244" height="287" xlink:href="846D4F1E90A9A809.png"  transform="matrix(0.9959 0 0 0.9959 340.3728 334.4609)">
	</image>
	<g>
		<path class="st31" d="M555.9,603H367c-6.7,0-12.1-5.4-12.1-12.1V358.5c0-6.7,5.4-12.1,12.1-12.1h188.9c6.7,0,12.1,5.4,12.1,12.1
			v232.4C568,597.6,562.6,603,555.9,603z"/>
	</g>
</g>
<g>
	<g>
		<rect x="366" y="360.8" class="st10" width="190.3" height="210.8"/>
	</g>
	<defs>
		<filter id="Adobe_OpacityMaskFilter" filterUnits="userSpaceOnUse" x="366" y="360.8" width="190.3" height="210.8">
			<feColorMatrix  type="matrix" values="1 0 0 0 0  0 1 0 0 0  0 0 1 0 0  0 0 0 1 0"/>
		</filter>
	</defs>
	<mask maskUnits="userSpaceOnUse" x="366" y="360.8" width="190.3" height="210.8" id="SVGID_2_">
		<g class="st32">
			
				<image style="overflow:visible;enable-background:new    ;" width="197" height="217" xlink:href="846D4F1E90A9A80A.jpg"  transform="matrix(0.9949 0 0 0.9949 363 358.0508)">
			</image>
		</g>
	</mask>
	<g class="st33">
		<rect x="366" y="360.8" class="st12" width="190.3" height="210.8"/>
	</g>
</g>
<g>
	
		<image style="overflow:visible;opacity:0.2;enable-background:new    ;" width="112" height="190" xlink:href="846D4F1E90A9A80A.png"  transform="matrix(0.9911 0 0 0.9911 764.3728 353.721)">
	</image>
	<g>
		<path class="st31" d="M854.5,525.2h-70.4c-3.3,0-6-2.7-6-6V370.8c0-3.3,2.7-6,6-6h70.4c3.3,0,6,2.7,6,6v148.4
			C860.4,522.5,857.8,525.2,854.5,525.2z"/>
	</g>
</g>
<g>
	<g>
		<rect x="782.4" y="369.3" class="st10" width="73.5" height="140.3"/>
	</g>
	<defs>
		<filter id="Adobe_OpacityMaskFilter_1_" filterUnits="userSpaceOnUse" x="782.4" y="369.3" width="73.5" height="140.3">
			<feColorMatrix  type="matrix" values="1 0 0 0 0  0 1 0 0 0  0 0 1 0 0  0 0 0 1 0"/>
		</filter>
	</defs>
	<mask maskUnits="userSpaceOnUse" x="782.4" y="369.3" width="73.5" height="140.3" id="SVGID_5_">
		<g class="st34">
			
				<image style="overflow:visible;enable-background:new    ;" width="79" height="146" xlink:href="846D4F1E90A9A80E.jpg"  transform="matrix(0.9873 0 0 0.9873 780 367.424)">
			</image>
		</g>
	</mask>
	<g class="st35">
		<rect x="782.4" y="369.3" class="st12" width="73.5" height="140.3"/>
	</g>
</g>
<circle class="st36" cx="464.3" cy="585.3" r="7.3"/>
<path class="st37" d="M827.4,517.9h-16.2c-0.9,0-1.7-0.7-1.7-1.7l0,0c0-0.9,0.7-1.7,1.7-1.7h16.2c0.9,0,1.7,0.7,1.7,1.7l0,0
	C829,517.2,828.3,517.9,827.4,517.9z"/>
<rect x="783.9" y="370.5" class="st38" width="70.4" height="5.9"/>
<rect x="998.8" y="281.3" class="st29" width="59.1" height="8.7"/>
<rect x="1071.8" y="242.4" class="st29" width="59.1" height="8.6"/>
<rect x="1123" y="494.5" class="st39" width="59.1" height="8.6"/>
<rect x="1193.8" y="502.4" class="st39" width="59.1" height="8.6"/>
<rect x="1193.8" y="518.6" class="st39" width="59.1" height="8.6"/>
<rect x="1265.2" y="516.6" class="st39" width="41.1" height="8.6"/>
<rect x="1265.1" y="437.9" class="st29" width="41.3" height="11.4"/>
<rect x="1265.1" y="277.2" class="st29" width="41.3" height="7.4"/>
<rect x="1281.7" y="322.4" class="st29" width="8.2" height="68.7"/>
<rect x="1020" y="320" class="st29" width="15.7" height="68.7"/>
<rect x="1071.8" y="443.6" class="st29" width="59.1" height="5.9"/>
<rect x="1142.3" y="260.3" class="st29" width="34.2" height="8.6"/>
<rect x="1142.3" y="274.4" class="st29" width="34.2" height="8.6"/>
<rect x="1142.3" y="439.3" class="st29" width="34.2" height="8.6"/>
<g>
	
		<image style="overflow:visible;opacity:0.3;enable-background:new    ;" width="278" height="345" xlink:href="846D4F1E90A9A80E.png"  transform="matrix(0.9964 0 0 0.9964 1352.3702 125.4907)">
	</image>
	<g>
		<g>
			<ellipse class="st40" cx="1490.9" cy="428.3" rx="118.1" ry="18.9"/>
			<path class="st38" d="M1491.1,144.5L1491.1,144.5c-62.3,0-112.8,50.5-112.8,112.8v171.8c0,0,43,11.9,112.8,11.9
				s112.8-11.9,112.8-11.9V257.3C1603.9,195,1553.4,144.5,1491.1,144.5z"/>
		</g>
	</g>
</g>
<g>
	
		<image style="overflow:visible;enable-background:new    ;" width="118" height="115" xlink:href="846D4F1E90A9A80B.png"  transform="matrix(0.9913 0 0 0.9913 1379.0131 135)">
	</image>
</g>
<path class="st41" d="M1378.2,428.1c0,0,83.7-21.2,227.6,0c0,0-48.4,12.6-113.8,12C1426.6,439.4,1378.2,428.1,1378.2,428.1z"/>
<g>
	
		<image style="overflow:visible;opacity:0.3;enable-background:new    ;" width="329" height="310" xlink:href="846D4F1E90A9A808.png"  transform="matrix(0.9968 0 0 0.9968 1542.0306 365)">
	</image>
	<g>
		<g>
			<polygon class="st42" points="1619.7,635.5 1573.7,442.6 1764.2,386.6 1840.2,635.8 			"/>
			<polygon class="st12" points="1765.4,390.8 1772.1,392.7 1845.6,635.2 1840.2,635.8 			"/>
			<g>
				<path class="st43" d="M1579.6,454.7c-9.3-4.7-14.5,3.8-11.9,10.8s12.9,6.1,12.9,6.1"/>
				<path class="st43" d="M1581.5,463.1c-9.3-4.7-14.5,3.8-11.9,10.8s12.9,6.1,12.9,6.1"/>
				<path class="st43" d="M1583.4,471.4c-9.3-4.7-14.5,3.8-11.9,10.8s12.9,6.1,12.9,6.1"/>
				<path class="st43" d="M1585.3,479.7c-9.3-4.7-14.5,3.8-11.9,10.8s12.9,6.1,12.9,6.1"/>
				<path class="st43" d="M1587.2,488c-9.3-4.7-14.5,3.8-11.9,10.8s12.9,6.1,12.9,6.1"/>
				<path class="st43" d="M1589.1,496.4c-9.3-4.7-14.5,3.8-11.9,10.8c2.6,7,12.9,6.1,12.9,6.1"/>
				<path class="st43" d="M1591,504.7c-9.3-4.7-14.5,3.8-11.9,10.8s12.9,6.1,12.9,6.1"/>
				<path class="st43" d="M1592.9,513c-9.3-4.7-14.5,3.8-11.9,10.8s12.9,6.1,12.9,6.1"/>
				<path class="st43" d="M1594.8,521.3c-9.3-4.7-14.5,3.8-11.9,10.8s12.9,6.1,12.9,6.1"/>
				<path class="st43" d="M1596.7,529.7c-9.3-4.7-14.5,3.8-11.9,10.8s12.9,6.1,12.9,6.1"/>
				<path class="st43" d="M1598.6,538c-9.3-4.7-14.5,3.8-11.9,10.8s12.9,6.1,12.9,6.1"/>
				<path class="st43" d="M1600.5,546.3c-9.3-4.7-14.5,3.8-11.9,10.8s12.9,6.1,12.9,6.1"/>
				<path class="st43" d="M1602.4,554.6c-9.3-4.7-14.5,3.8-11.9,10.8s12.9,6.1,12.9,6.1"/>
				<path class="st43" d="M1604.3,563c-9.3-4.7-14.5,3.8-11.9,10.8s12.9,6.1,12.9,6.1"/>
				<path class="st43" d="M1606.2,571.3c-9.3-4.7-14.5,3.8-11.9,10.8s12.9,6.1,12.9,6.1"/>
				<path class="st43" d="M1608.1,579.6c-9.3-4.7-14.5,3.8-11.9,10.8s12.9,6.1,12.9,6.1"/>
				<path class="st43" d="M1610,587.9c-9.3-4.7-14.5,3.8-11.9,10.8s12.9,6.1,12.9,6.1"/>
				<path class="st43" d="M1611.9,596.3c-9.3-4.7-14.5,3.8-11.9,10.8s12.9,6.1,12.9,6.1"/>
				<path class="st43" d="M1613.8,604.6c-9.3-4.7-14.5,3.8-11.9,10.8s12.9,6.1,12.9,6.1"/>
				<path class="st43" d="M1615.7,612.9c-9.3-4.7-14.5,3.8-11.9,10.8s12.9,6.1,12.9,6.1"/>
				<path class="st43" d="M1617.6,621.2c-9.3-4.7-14.5,3.8-11.9,10.8s12.9,6.1,12.9,6.1"/>
				<path class="st43" d="M1619.5,629.6c-9.3-4.7-14.5,3.8-11.9,10.8s12.9,6.1,12.9,6.1"/>
			</g>
			<polygon class="st44" points="1617.5,471.6 1738.1,437.4 1751.2,486.7 1628.3,523.9 			"/>
		</g>
	</g>
</g>
<path class="st12" d="M1343.3,638.4c0,0,15.5-170.3,5.1-190.4c0,0,162.1,9.5,187.3,1.7l-1.7,187.8L1343.3,638.4z"/>
<g>
	
		<image style="overflow:visible;opacity:0.2;enable-background:new    ;" width="266" height="213" xlink:href="846D4F1E90A9A82D.png"  transform="matrix(0.9953 0 0 0.9953 1350.9801 442.8557)">
	</image>
	<g>
		<path class="st12" d="M1387.5,636.8l-22.4-143.2c0,0,178.1-26.4,187.8-38.3l47.3,181.3L1387.5,636.8z"/>
	</g>
</g>
<g>
	
		<image style="overflow:visible;opacity:0.3;enable-background:new    ;" width="221" height="172" xlink:href="846D4F1E90A9A82B.png"  transform="matrix(0.9942 0 0 0.9942 1390.9982 485.8557)">
	</image>
	<g>
		<path class="st12" d="M1405.1,636.8l5.4-139.1c0,0,157.4,13.1,185,9.1l-2.4,131.7L1405.1,636.8z"/>
	</g>
</g>
<path class="st45" d="M1425.4,518c0,0,95.6,9.5,149.5,6.8"/>
<path class="st45" d="M1425.4,532.3c0,0,80,6.6,84.8,5.7v95.1l-86.9-3.1L1425.4,532.3z"/>
<line class="st45" x1="1425.4" y1="532.3" x2="1510.2" y2="633.1"/>
<line class="st45" x1="1510.2" y1="538" x2="1423.3" y2="630"/>
<line class="st45" x1="1525.1" y1="538" x2="1570.4" y2="539.8"/>
<path class="st45" d="M1525.1,552.2c0,0,46.9,4.8,49.7,2.6"/>
<path class="st45" d="M1525.1,608.9V568c0,0,30.2,4.5,50.5,2.6l-1.7,41.5C1573.8,612.1,1554.8,613.4,1525.1,608.9z"/>
<path class="st29" d="M1099.8,257c0.4,0.5,0.7,0.8,1,1.2c2,2.4,4.5,4.1,7.1,5.5s5.2,3,7.3,5.1c2.5,2.4,4,5.5,4.5,8.9
	c0.2,1.6,0.4,3.3,0.4,4.9c-0.1,3.9-1.1,7.6-3.6,10.7c-3,3.6-6.8,5.9-11.4,6.8c-8.4,1.5-16.1-2.4-20.2-9.2c-1.2-2-1.9-4.3-2.2-6.6
	c-0.4-3-0.2-5.9,0.7-8.7c0.7-2.3,2-4.2,3.5-6c1.9-2.3,4.4-3.8,7-5.2c1.3-0.7,2.5-1.5,3.8-2.3c1.3-0.9,1.9-2.1,2-3.7
	C1099.7,257.9,1099.8,257.5,1099.8,257z M1097,281.6c-1.8,0-3.4,0.5-4.9,1.5c-2.4,1.7-3.3,5.1-0.6,7.6c2.2,2,4.7,2.8,7.6,2
	c1.1-0.3,2.2-0.9,3.3-1.4c1.4-0.7,2.7-1.4,4.1-2.1c1.5-0.7,2.8-0.6,3.9,0.6c0.8,0.9,1.7,1.7,2.6,2.5c0.8,0.8,1.8,0.9,2.8,0.2
	c0.8-0.5,1.4-1.3,1.8-2.1c0.6-1.3,0.7-2.6,0.8-4c0.1-1.5-0.3-2.8-1.1-4c-0.7-0.9-1.5-1.1-2.5-0.6c-0.2,0.1-0.5,0.2-0.6,0.4
	c-0.9,0.7-1.7,1.3-2.6,2c-2.5,2-3.2,2.3-6.3,0.5c-0.9-0.5-1.8-1-2.7-1.5C1100.9,282.3,1099.1,281.6,1097,281.6z M1104.8,298.1
	c1.9,0,3.7-0.3,5.3-1.3c0.3-0.2,0.6-0.4,0.8-0.7c0.1-0.1,0-0.4,0-0.6c-0.2,0-0.4,0-0.5,0.1c-0.6,0.6-1.3,0.9-2.1,1
	c-1.7,0.4-3.5,0.4-5.2,0.2c-1-0.1-1.9-0.3-2.7-1c-0.3-0.3-0.6-0.3-0.8,0c-0.3,0.3-0.3,0.7,0.1,0.9c0.4,0.2,0.7,0.5,1.1,0.6
	C1102.2,298.1,1103.5,298.1,1104.8,298.1z M1109.7,293.7c0.5-0.2,0.6-0.5,0.4-0.9c-0.2-0.3-0.4-0.6-0.6-0.9
	c-0.3-0.5-0.7-0.8-1.3-0.9c-1.9-0.3-3.4,0.4-4.7,1.9c-0.2,0.2-0.2,0.4,0,0.7c0.2,0.3,0.4,0.2,0.6,0s0.4-0.3,0.5-0.5
	c0.9-1,2-1.2,3.2-1c0.7,0.1,1.2,0.5,1.5,1.1C1109.5,293.3,1109.6,293.5,1109.7,293.7z"/>
<g id="iT9tLJ_1_" class="st46">
	<g>
		<path class="st47" d="M1240.2,597.5c0.2,1.3,0.5,2.6,0.6,3.9c0.3,2.8,0.4,5.5-0.7,8.2c-0.7,1.9-1.9,3.4-4,3.8
			c-1.3,0.3-2.7,0-3.9-0.4c-2.7-0.9-4.9-2.5-7-4.3c-0.5-0.5-1.1-0.9-1.6-1.5c-0.7,0.6-1.4,1.2-2.1,1.8c-2.2,1.8-4.5,3.3-7.3,4
			c-1.1,0.3-2.2,0.4-3.3,0.2c-2.5-0.3-3.7-2.1-4.4-4.3c-0.7-2.2-0.7-4.4-0.4-6.6c0.2-1.6,0.5-3.1,0.7-4.7c-1-0.4-2.1-0.7-3.1-1.1
			c-2.2-0.9-4.2-1.9-5.9-3.5c-0.8-0.8-1.6-1.7-2.2-2.7c-1-1.7-0.9-3.5,0.1-5.2c0.9-1.6,2.3-2.7,3.8-3.7c2.1-1.3,4.3-2.2,6.6-2.9
			c0.3-0.1,0.5-0.2,0.8-0.3c-0.2-1-0.4-2-0.6-3.1c-0.4-2.8-0.6-5.6,0.2-8.3c0.6-2.1,1.7-3.7,4-4.3c1.3-0.3,2.6-0.1,3.9,0.3
			c2.8,0.8,5.2,2.4,7.4,4.3c0.6,0.5,1.2,1,1.7,1.5c0.9-0.8,1.8-1.6,2.8-2.4c2.1-1.7,4.4-3.1,7.1-3.7c3.3-0.8,5.7,0.5,6.8,3.6
			c0.3,0.9,0.5,1.8,0.6,2.7c0.4,3,0,6-0.6,8.9c0,0.1-0.1,0.3-0.1,0.4c0.8,0.3,1.7,0.5,2.5,0.8c2.5,0.9,4.9,2.1,6.9,3.9
			c0.7,0.6,1.4,1.4,1.9,2.2c1.1,1.7,1,3.4,0,5.1c-0.7,1.3-1.8,2.3-3,3.2c-2.2,1.6-4.7,2.7-7.4,3.6
			C1240.7,597.3,1240.4,597.4,1240.2,597.5z M1223.2,597c0,0.1,0,0.1,0,0.2c1.6-0.1,3.3-0.1,4.9-0.2c0.2,0,0.6-0.2,0.7-0.4
			c1.6-2.7,3.2-5.5,4.7-8.3c0.1-0.2,0.1-0.6,0-0.7c-1.6-2.8-3.2-5.5-4.8-8.2c-0.1-0.2-0.5-0.4-0.7-0.4c-3.2,0-6.3,0-9.5,0
			c-0.2,0-0.6,0.2-0.7,0.4c-1.6,2.7-3.2,5.5-4.8,8.3c-0.1,0.2-0.1,0.6,0,0.8c1.6,2.8,3.2,5.5,4.8,8.3c0.1,0.2,0.4,0.3,0.7,0.3
			C1220.2,597,1221.7,597,1223.2,597z M1207.4,580.7c-2.7,0.8-5.4,1.8-7.7,3.6c-0.7,0.6-1.3,1.2-1.9,2c-0.8,1-0.8,2.1-0.1,3.2
			c0.4,0.6,0.9,1.2,1.5,1.7c1.5,1.4,3.4,2.3,5.3,3.1c0.9,0.4,1.9,0.7,2.9,1.1c0.1-0.3,0.2-0.5,0.3-0.7c0.6-1.7,1.2-3.4,1.9-5.1
			c0.5-1.1,0.5-2,0-3.2C1208.8,584.6,1208.1,582.7,1207.4,580.7z M1209.1,598.3c-0.6,2.6-1.1,5.2-0.8,7.8c0.1,1.1,0.5,2.3,0.9,3.3
			c0.4,1.1,1.5,1.6,2.7,1.5c0.4,0,0.8-0.1,1.2-0.2c3.5-0.8,6.1-3,8.6-5.3c-1.5-1.9-3-3.8-4.5-5.7c-0.3-0.4-0.6-0.5-1-0.6
			c-1.3-0.1-2.6-0.3-3.8-0.5C1211.3,598.6,1210.2,598.4,1209.1,598.3z M1237.8,598.1c-0.2,0-0.4,0-0.5,0.1c-2.3,0.4-4.6,0.7-6.9,1.1
			c-0.2,0-0.5,0.2-0.6,0.4c-0.8,1-1.6,2.1-2.4,3.1c-0.7,0.9-1.4,1.7-2.2,2.6c0.6,0.5,1.1,1,1.6,1.4c1.9,1.6,3.9,3,6.4,3.8
			c2.7,0.8,4.2,0,4.9-2.7c0.6-2,0.5-4,0.3-6C1238.3,600.7,1238,599.4,1237.8,598.1z M1221.6,570.4c-0.8-0.7-1.6-1.4-2.4-2
			c-1.8-1.4-3.7-2.6-5.9-3.2c-2.6-0.7-4,0.1-4.6,2.7c-0.5,2.2-0.4,4.5-0.1,6.8c0.2,1,0.4,2,0.6,2.9c0.1,0.1,0.2,0.1,0.2,0.1
			c2.4-0.4,4.9-0.7,7.3-1.1c0.1,0,0.3-0.1,0.4-0.2C1218.5,574.4,1220,572.4,1221.6,570.4z M1237.6,577.6
			C1237.6,577.7,1237.6,577.6,1237.6,577.6c0.7-2.8,1.1-5.5,0.7-8.3c-0.1-1-0.5-2.1-0.9-3.1c-0.4-0.9-1.1-1.4-2.1-1.4
			c-0.5,0-1,0-1.5,0.1c-3.5,0.9-6.1,3.1-8.6,5.4c1.6,2,3.1,4,4.6,5.9c0.1,0.1,0.3,0.2,0.4,0.2
			C1232.7,576.9,1235.1,577.3,1237.6,577.6z M1239.4,580.7c-0.1,0.1-0.1,0.2-0.1,0.2c-0.9,2.2-1.7,4.4-2.6,6.7
			c-0.1,0.2,0,0.5,0.1,0.7c0.8,2.1,1.7,4.2,2.5,6.4c0.1,0.1,0.1,0.3,0.2,0.5c2.9-0.9,5.7-2,8-4c0.6-0.5,1.1-1.1,1.6-1.8
			c0.7-1,0.7-2,0-2.9c-0.4-0.6-0.9-1.1-1.4-1.6C1245.2,582.7,1242.4,581.7,1239.4,580.7z M1237.1,595.8c-0.7-1.7-1.3-3.3-1.9-5.1
			c-1.2,2.1-2.3,4-3.4,6C1233.6,596.4,1235.3,596.1,1237.1,595.8z M1211.6,590.8c-0.6,1.7-1.2,3.3-1.9,5.1c1.8,0.3,3.5,0.6,5.3,0.8
			C1213.9,594.7,1212.8,592.8,1211.6,590.8z M1226.9,599.6c-2.3,0-4.5,0-6.8,0c1.2,1.4,2.3,2.7,3.5,4.1
			C1224.6,602.3,1225.7,601,1226.9,599.6z M1231.8,579.2c1.1,2,2.2,3.9,3.4,5.9c0.6-1.7,1.2-3.3,1.8-5
			C1235.2,579.8,1233.6,579.5,1231.8,579.2z M1226.8,576.3c-1.2-1.4-2.2-2.7-3.4-4.1c-1.2,1.4-2.2,2.7-3.4,4.1
			C1222.3,576.3,1224.5,576.3,1226.8,576.3z M1211.6,585c1.1-2,2.2-3.9,3.4-5.9c-1.8,0.3-3.4,0.6-5.1,0.9c0.1,0.4,0.2,0.6,0.2,0.9
			C1210.6,582.3,1211.1,583.6,1211.6,585z"/>
		<path class="st47" d="M1228.5,587.9c0,2.8-2.3,5.1-5.1,5.1c-2.9,0-5.1-2.3-5.1-5.1s2.3-5.1,5.1-5.1
			C1226.2,582.8,1228.5,585,1228.5,587.9z"/>
	</g>
</g>
</svg>
