<?xml version="1.0" encoding="utf-8"?>
<!-- Generator: Adobe Illustrator 24.0.1, SVG Export Plug-In . SVG Version: 6.00 Build 0)  -->
<svg version="1.1" id="Layer_1" xmlns="http://www.w3.org/2000/svg" xmlns:xlink="http://www.w3.org/1999/xlink" x="0px" y="0px"
	 viewBox="0 0 578 654" style="enable-background:new 0 0 578 654;" xml:space="preserve">
<style type="text/css">
	.st0{fill:none;stroke:#007E9D;stroke-width:4;stroke-miterlimit:10;}
	.st1{fill:url(#SVGID_1_);}
	.st2{fill:#22BBAD;}
	.st3{fill:#FAA61A;}
	.st4{fill:#77C043;}
	.st5{fill:#666666;}
	.st6{fill:#FFFFFF;}
	.st7{fill:#F1F1F1;}
	.st8{fill:#E4414B;}
	.st9{fill:#4D4D4D;}
	.st10{fill:#007E9D;}
	.st11{opacity:0.2;fill:url(#SVGID_2_);}
	.st12{fill:#00ADE4;}
	.st13{fill:#00467F;}
	.st14{fill:#0E617E;}
	.st15{font-family:'Montserrat-SemiBold';}
	.st16{font-size:14.9478px;}
	.st17{fill:#85DC43;}
	.st18{fill:#F6D652;}
	.st19{filter:url(#Adobe_OpacityMaskFilter);}
	.st20{opacity:0.3;mask:url(#SVGID_3_);}
	.st21{fill:none;stroke:#00467F;stroke-width:6;stroke-miterlimit:10;}
	.st22{fill:none;stroke:#0E617E;stroke-width:6;stroke-miterlimit:10;}
	.st23{fill:none;}
	.st24{opacity:0.2;}
	.st25{fill:#989898;}
	.st26{fill:#B2B2B2;}
	.st27{fill:url(#SVGID_4_);}
	.st28{fill:none;stroke:url(#SVGID_5_);stroke-width:1.8046;stroke-linecap:round;stroke-miterlimit:10;}
	.st29{fill:none;stroke:url(#SVGID_6_);stroke-width:1.8046;stroke-linecap:round;stroke-miterlimit:10;}
	.st30{fill:none;stroke:url(#SVGID_7_);stroke-width:1.8046;stroke-linecap:round;stroke-miterlimit:10;}
	.st31{fill:none;stroke:url(#SVGID_8_);stroke-width:1.8046;stroke-linecap:round;stroke-miterlimit:10;}
	.st32{fill:none;stroke:url(#SVGID_9_);stroke-width:1.8046;stroke-linecap:round;stroke-miterlimit:10;}
	.st33{fill:#C3B393;}
	.st34{fill:#DCCBA7;}
	.st35{fill:#AC9145;}
	.st36{fill:#D0C09A;}
	.st37{fill:#AC9676;}
	.st38{fill:#C0A980;}
	.st39{fill:#5E2D0D;}
	.st40{fill:#6D5C4A;}
	.st41{fill:#7C6A53;}
	.st42{fill:#E1D039;}
	.st43{fill:#F3E63B;}
	.st44{fill:#E7D638;}
	.st45{font-family:'Montserrat-Bold';}
	.st46{font-size:39.9725px;}
	.st47{font-size:39.3785px;}
	.st48{fill:#333333;}
	.st49{font-size:12px;}
</style>
<g>
	<circle class="st0" cx="286.6" cy="294.7" r="262"/>
	<linearGradient id="SVGID_1_" gradientUnits="userSpaceOnUse" x1="143.089" y1="151.1416" x2="430.1744" y2="438.227">
		<stop  offset="0.459" style="stop-color:#22BBAD;stop-opacity:0.1"/>
		<stop  offset="0.8749" style="stop-color:#007E9D;stop-opacity:0.15"/>
		<stop  offset="1" style="stop-color:#00467F;stop-opacity:0.2"/>
	</linearGradient>
	<circle class="st1" cx="286.6" cy="294.7" r="203"/>
	<g>
		
			<image style="overflow:visible;opacity:0.3;" width="200" height="200" xlink:href="42361950AB650F18.png"  transform="matrix(1 0 0 1 384 378)">
		</image>
		<g>
			<circle class="st2" cx="484" cy="476.4" r="63.6"/>
		</g>
	</g>
	<g>
		
			<image style="overflow:visible;opacity:0.3;" width="200" height="200" xlink:href="42361950AB650F19.png"  transform="matrix(1 0 0 1 379 -1)">
		</image>
		<g>
			<circle class="st3" cx="479" cy="96.9" r="63.6"/>
		</g>
	</g>
	<g>
		
			<image style="overflow:visible;opacity:0.3;" width="200" height="200" xlink:href="42361950AB650F1F.png"  transform="matrix(1 0 0 1 -12 2)">
		</image>
		<g>
			<circle class="st4" cx="88.2" cy="100.3" r="63.6"/>
		</g>
	</g>
	<g>
		
			<image style="overflow:visible;opacity:0.3;" width="391" height="269" xlink:href="42361950AB650F1A.png"  transform="matrix(1 0 0 1 96.2358 149.2358)">
		</image>
		<g>
			<path class="st5" d="M443,382.3H140.4c-5.9,0-10.7-4.8-10.7-10.7V190.3c0-5.9,4.8-10.7,10.7-10.7H443c5.9,0,10.7,4.8,10.7,10.7
				v181.3C453.6,377.5,448.9,382.3,443,382.3z"/>
		</g>
	</g>
	<g>
		<rect x="140.5" y="191.9" class="st6" width="302.5" height="178.2"/>
	</g>
	<rect x="140.5" y="191.9" class="st7" width="302.5" height="15.4"/>
	<circle class="st8" cx="148.7" cy="199" r="2.8"/>
	<circle class="st3" cx="159.7" cy="199" r="2.8"/>
	<circle class="st4" cx="170.7" cy="199" r="2.8"/>
	<rect x="261.9" y="382.3" class="st9" width="58.7" height="18.3"/>
	<rect x="229" y="407.7" class="st9" width="125.3" height="10.7"/>
	<rect x="141" y="207.7" class="st10" width="302.7" height="12"/>
	<linearGradient id="SVGID_2_" gradientUnits="userSpaceOnUse" x1="143.3668" y1="372.4791" x2="345.2752" y2="170.5706">
		<stop  offset="0" style="stop-color:#22BBAD"/>
		<stop  offset="4.243023e-02" style="stop-color:#1DB2AB"/>
		<stop  offset="0.2017" style="stop-color:#0D96A3"/>
		<stop  offset="0.3404" style="stop-color:#03849F"/>
		<stop  offset="0.4422" style="stop-color:#007E9D"/>
		<stop  offset="0.5804" style="stop-color:#057291"/>
		<stop  offset="0.8047" style="stop-color:#0C6583"/>
		<stop  offset="1" style="stop-color:#0E617E"/>
	</linearGradient>
	<polygon class="st11" points="141,219.7 394.4,219.7 301,370.1 141,370.1 	"/>
	<g>
		
			<image style="overflow:visible;opacity:0.3;" width="68" height="61" xlink:href="42361950AB650F1B.png"  transform="matrix(1 0 0 1 166 250)">
		</image>
		<g>
			<path class="st3" d="M221.3,302.4h-42.4c-2.5,0-4.6-2.1-4.6-4.6v-34.8c0-2.5,2.1-4.6,4.6-4.6h42.4c2.5,0,4.6,2.1,4.6,4.6v34.8
				C225.9,300.3,223.9,302.4,221.3,302.4z"/>
		</g>
	</g>
	<g>
		
			<image style="overflow:visible;opacity:0.3;" width="68" height="61" xlink:href="42361950AB650F16.png"  transform="matrix(1 0 0 1 227 250)">
		</image>
		<g>
			<path class="st2" d="M282.3,302.4h-42.4c-2.5,0-4.6-2.1-4.6-4.6v-34.8c0-2.5,2.1-4.6,4.6-4.6h42.4c2.5,0,4.6,2.1,4.6,4.6v34.8
				C286.9,300.3,284.9,302.4,282.3,302.4z"/>
		</g>
	</g>
	<g>
		
			<image style="overflow:visible;opacity:0.3;" width="68" height="61" xlink:href="42361950AB650F17.png"  transform="matrix(1 0 0 1 288 250)">
		</image>
		<g>
			<path class="st4" d="M343.4,302.4h-42.4c-2.5,0-4.6-2.1-4.6-4.6v-34.8c0-2.5,2.1-4.6,4.6-4.6h42.4c2.5,0,4.6,2.1,4.6,4.6v34.8
				C348,300.3,345.9,302.4,343.4,302.4z"/>
		</g>
	</g>
	<g>
		
			<image style="overflow:visible;opacity:0.3;" width="68" height="61" xlink:href="42361950AB650F28.png"  transform="matrix(1 0 0 1 349 250)">
		</image>
		<g>
			<path class="st12" d="M404.4,302.4h-42.4c-2.5,0-4.6-2.1-4.6-4.6v-34.8c0-2.5,2.1-4.6,4.6-4.6h42.4c2.5,0,4.6,2.1,4.6,4.6v34.8
				C409,300.3,406.9,302.4,404.4,302.4z"/>
		</g>
	</g>
	<g>
		
			<image style="overflow:visible;opacity:0.3;" width="119" height="58" xlink:href="42361950AB650F2B.png"  transform="matrix(1 0 0 1 232 305)">
		</image>
		<g>
			<rect x="245" y="314.4" class="st7" width="93.3" height="33.3"/>
		</g>
	</g>
	<line class="st13" x1="235.6" y1="249" x2="347.6" y2="249"/>
	<text transform="matrix(1 0 0 1 207.8083 239.057)" class="st14 st15 st16">Westat Design System</text>
	<g>
		
			<image style="overflow:visible;opacity:0.3;" width="201" height="201" xlink:href="91D1A8A8C59B2EC7.png"  transform="matrix(1 0 0 1 -6 388)">
		</image>
		<g>
			<circle class="st12" cx="94.5" cy="486.4" r="63.6"/>
		</g>
	</g>
	<circle class="st10" cx="286.6" cy="32.7" r="7"/>
	<circle class="st10" cx="527.6" cy="397.7" r="7"/>
	<circle class="st10" cx="225.6" cy="549.7" r="7"/>
	<circle class="st10" cx="262.6" cy="555.7" r="7"/>
	<circle class="st10" cx="30.6" cy="231.7" r="7"/>
	<g>
		
			<image style="overflow:visible;opacity:0.25;" width="87" height="101" xlink:href="91D1A8A8C59B2EC5.png"  transform="matrix(1 0 0 1 415.8405 68.8405)">
		</image>
		<g>
			<polygon class="st17" points="433.8,136.6 450.4,133.6 458.9,148.4 484.3,94.7 459.2,82.8 			"/>
		</g>
	</g>
	<g>
		
			<image style="overflow:visible;opacity:0.25;" width="86" height="101" xlink:href="91D1A8A8C59B2EC3.png"  transform="matrix(1 0 0 1 458.8405 68.8405)">
		</image>
		<g>
			<polygon class="st17" points="526.6,136.6 510,133.6 501.5,148.4 476.1,94.7 501.2,82.8 			"/>
		</g>
	</g>
	<g>
		
			<image style="overflow:visible;opacity:0.25;" width="116" height="116" xlink:href="91D1A8A8C59B2EDD.png"  transform="matrix(1 0 0 1 420.8405 23.8405)">
		</image>
		<g>
			<g>
				<circle class="st18" cx="478.4" cy="77.8" r="40"/>
			</g>
			<defs>
				<filter id="Adobe_OpacityMaskFilter" filterUnits="userSpaceOnUse" x="438.4" y="37.7" width="80.1" height="80.1">
					<feFlood  style="flood-color:white;flood-opacity:1" result="back"/>
					<feBlend  in="SourceGraphic" in2="back" mode="normal"/>
				</filter>
			</defs>
			<mask maskUnits="userSpaceOnUse" x="438.4" y="37.7" width="80.1" height="80.1" id="SVGID_3_">
				<g class="st19">
					
						<image style="overflow:visible;" width="85" height="85" xlink:href="91D1A8A8C59B2EDF.jpg"  transform="matrix(1 0 0 1 436 35)">
					</image>
				</g>
			</mask>
			<g class="st20">
				<circle class="st6" cx="478.4" cy="77.8" r="40"/>
			</g>
		</g>
	</g>
	<g>
		<path class="st6" d="M478.4,51.4c14.5,0,26.3,11.8,26.3,26.3c0,14.5-11.8,26.3-26.3,26.3c-14.5,0-26.3-11.8-26.3-26.3
			C452.1,63.2,463.9,51.4,478.4,51.4 M478.4,49.2c-15.8,0-28.6,12.8-28.6,28.6s12.8,28.6,28.6,28.6c15.8,0,28.6-12.8,28.6-28.6
			S494.2,49.2,478.4,49.2L478.4,49.2z"/>
	</g>
	<polygon class="st4" points="494.4,69.2 490.4,65.3 473.1,82.6 465.4,74.9 461.4,78.9 473.1,90.6 	"/>
	<g>
		
			<image style="overflow:visible;opacity:0.25;" width="125" height="125" xlink:href="91D1A8A8C59B2EC2.png"  transform="matrix(1 0 0 1 422 416)">
		</image>
		<g>
			<circle class="st7" cx="484.6" cy="475.7" r="44"/>
			<circle class="st21" cx="484.6" cy="475.7" r="44"/>
		</g>
	</g>
	<g>
		
			<image style="overflow:visible;opacity:0.25;" width="56" height="80" xlink:href="91D1A8A8C59B2EC1.png"  transform="matrix(1 0 0 1 462 435)">
		</image>
		<g>
			<g>
				<polyline class="st22" points="483.6,456.3 483.6,477.7 496.5,490.6 				"/>
				<g>
					<polygon class="st14" points="477.6,458 483.6,447.7 489.6,458 					"/>
				</g>
				<g>
					<polygon class="st14" points="491.1,493.6 502.6,496.7 499.5,485.1 					"/>
				</g>
			</g>
		</g>
	</g>
	<g>
		<circle class="st23" cx="94.5" cy="486.4" r="56.7"/>
	</g>
	<g class="st24">
		
			<image style="overflow:visible;opacity:0.25;" width="127" height="128" xlink:href="91D1A8A8C59B2EC6.png"  transform="matrix(1 0 0 1 31 413)">
		</image>
		<g>
			<circle class="st7" cx="94.5" cy="473.9" r="48.3"/>
		</g>
	</g>
	<g>
		<g>
			
				<image style="overflow:visible;opacity:0.25;" width="42" height="37" xlink:href="91D1A8A8C59B2EC0.png"  transform="matrix(1 0 0 1 73 450)">
			</image>
			<g>
				<path class="st25" d="M88.5,463.2v2.1c0,0.3,0.2,0.5,0.5,0.5h0.3c0.3,0,0.5,0.2,0.5,0.5v1.5c0,0.3,0.2,0.5,0.5,0.5h7
					c0.3,0,0.5-0.2,0.5-0.5v-1.5c0-0.3,0.2-0.5,0.5-0.5h0.3c0.3,0,0.5-0.2,0.5-0.5v-2.1c0-0.3-0.2-0.5-0.5-0.5H89
					C88.7,462.7,88.5,462.9,88.5,463.2z"/>
			</g>
		</g>
		<path class="st26" d="M98.8,464h-9.9c-0.2,0-0.4,0.2-0.4,0.4v1.1c0,0.2,0.2,0.4,0.4,0.4h9.9c0.2,0,0.4-0.2,0.4-0.4v-1.1
			C99.2,464.2,99,464,98.8,464z"/>
		<path class="st26" d="M97.4,466.9h-7.2c-0.2,0-0.4,0.1-0.4,0.3v0.8c0,0.2,0.2,0.3,0.4,0.3h7.2c0.2,0,0.4-0.1,0.4-0.3v-0.8
			C97.8,467,97.6,466.9,97.4,466.9z"/>
		<g>
			
				<image style="overflow:visible;opacity:0.25;" width="38" height="42" xlink:href="91D1A8A8C59B2ECE.png"  transform="matrix(1 0 0 1 75.2328 430.2328)">
			</image>
			<g>
				<radialGradient id="SVGID_4_" cx="93.6994" cy="449.2339" r="12.4599" gradientUnits="userSpaceOnUse">
					<stop  offset="0" style="stop-color:#FCCF83"/>
					<stop  offset="0.2633" style="stop-color:#FCCE80"/>
					<stop  offset="0.4482" style="stop-color:#FCCA77"/>
					<stop  offset="0.6092" style="stop-color:#FCC468"/>
					<stop  offset="0.7565" style="stop-color:#FBBC52"/>
					<stop  offset="0.8931" style="stop-color:#FBB136"/>
					<stop  offset="1" style="stop-color:#FAA61A"/>
				</radialGradient>
				<path class="st27" d="M93.7,435.8c-0.1,0-0.2,0-0.4,0c-5.4,0.2-10,4.2-10.8,9.5c-0.6,3.5,0.5,6.9,2.7,9.4
					c1.6,1.8,2.5,4.1,2.5,6.5v0.9c0,0.4,0.3,0.7,0.7,0.7H99c0.4,0,0.7-0.3,0.7-0.7v-0.9c0-2.4,0.9-4.7,2.5-6.4
					c1.8-2.1,2.9-4.7,2.9-7.6C105.1,440.9,100,435.8,93.7,435.8z"/>
			</g>
		</g>
		<linearGradient id="SVGID_5_" gradientUnits="userSpaceOnUse" x1="93.6994" y1="433.5466" x2="93.6994" y2="425.782">
			<stop  offset="0" style="stop-color:#FCCF83"/>
			<stop  offset="0.1616" style="stop-color:#FCCC7D"/>
			<stop  offset="0.3846" style="stop-color:#FCC66B"/>
			<stop  offset="0.6434" style="stop-color:#FBBA4E"/>
			<stop  offset="0.927" style="stop-color:#FAAB26"/>
			<stop  offset="1" style="stop-color:#FAA61A"/>
		</linearGradient>
		<line class="st28" x1="93.7" y1="432.6" x2="93.7" y2="426.7"/>
		
			<linearGradient id="SVGID_6_" gradientUnits="userSpaceOnUse" x1="-254.2166" y1="5246.3623" x2="-249.9605" y2="5242.106" gradientTransform="matrix(0.7071 -0.7071 0.7071 0.7071 -3448.3784 -3451.7505)">
			<stop  offset="0" style="stop-color:#FCCF83"/>
			<stop  offset="0.1616" style="stop-color:#FCCC7D"/>
			<stop  offset="0.3846" style="stop-color:#FCC66B"/>
			<stop  offset="0.6434" style="stop-color:#FBBA4E"/>
			<stop  offset="0.927" style="stop-color:#FAAB26"/>
			<stop  offset="1" style="stop-color:#FAA61A"/>
		</linearGradient>
		<line class="st29" x1="83.7" y1="436.8" x2="79.5" y2="432.6"/>
		
			<linearGradient id="SVGID_7_" gradientUnits="userSpaceOnUse" x1="-3901.9148" y1="8404.1406" x2="-3900.1101" y2="8404.1406" gradientTransform="matrix(4.489700e-11 -1 1 4.489700e-11 -8327.5059 -3454.135)">
			<stop  offset="0" style="stop-color:#FCCF83"/>
			<stop  offset="0.1616" style="stop-color:#FCCC7D"/>
			<stop  offset="0.3846" style="stop-color:#FCC66B"/>
			<stop  offset="0.6434" style="stop-color:#FBBA4E"/>
			<stop  offset="0.927" style="stop-color:#FAAB26"/>
			<stop  offset="1" style="stop-color:#FAA61A"/>
		</linearGradient>
		<line class="st30" x1="79.6" y1="446.9" x2="73.7" y2="446.9"/>
		
			<linearGradient id="SVGID_8_" gradientUnits="userSpaceOnUse" x1="-7879.874" y1="-3565.0476" x2="-7881.6787" y2="-3565.0476" gradientTransform="matrix(-4.489700e-11 1 -1 -4.489700e-11 -3454.135 8327.5059)">
			<stop  offset="0" style="stop-color:#FCCF83"/>
			<stop  offset="0.1616" style="stop-color:#FCCC7D"/>
			<stop  offset="0.3846" style="stop-color:#FCC66B"/>
			<stop  offset="0.6434" style="stop-color:#FBBA4E"/>
			<stop  offset="0.927" style="stop-color:#FAAB26"/>
			<stop  offset="1" style="stop-color:#FAA61A"/>
		</linearGradient>
		<line class="st31" x1="107.9" y1="446.7" x2="113.9" y2="446.7"/>
		
			<linearGradient id="SVGID_9_" gradientUnits="userSpaceOnUse" x1="-3064.0786" y1="-3217.1316" x2="-3068.3347" y2="-3221.3877" gradientTransform="matrix(0.7071 0.7071 -0.7071 0.7071 -2.3845 4879.1279)">
			<stop  offset="0" style="stop-color:#FCCF83"/>
			<stop  offset="0.1616" style="stop-color:#FCCC7D"/>
			<stop  offset="0.3846" style="stop-color:#FCC66B"/>
			<stop  offset="0.6434" style="stop-color:#FBBA4E"/>
			<stop  offset="0.927" style="stop-color:#FAAB26"/>
			<stop  offset="1" style="stop-color:#FAA61A"/>
		</linearGradient>
		<line class="st32" x1="103.7" y1="436.7" x2="107.9" y2="432.5"/>
	</g>
	<g>
		
			<image style="overflow:visible;opacity:0.25;" width="84" height="93" xlink:href="91D1A8A8C59B2EE6.png"  transform="matrix(1 0 0 1 19.9987 445.9987)">
		</image>
		<g>
			<g>
				<g>
					<path class="st13" d="M87.8,514.4c-0.2-2.7-1.1-7.5-4.5-10.3l-0.3-0.2l0,0l0,0c-1.5-1.1-9.3-4.8-16-7.8l-0.3-0.1l-0.5-0.2
						l-0.4,0.3l-0.2,0.1c-1.9,1.3-3.9,1.9-5.7,1.9c-1.8,0-3.8-0.7-5.7-1.9l-0.2-0.1l-0.4-0.3l-0.5,0.2l-0.3,0.1
						c-5.2,2.3-14.3,6.4-16,7.8c1.6,5.1,3.9,9.9,6.7,14.3c4.9,0.8,10.7,1.6,16.4,1.6c10.8,0,22.4-2.6,26.8-3.8l0.4-0.1l0.8-0.2
						l-0.1-0.8L87.8,514.4z"/>
				</g>
				<path class="st33" d="M64.8,493.1l-10.7-0.4l-1.4,4.8l0.4,0.2c0.2,0.1,4,1.7,7.7,1.7c1.9,0,3.9-0.4,5.2-1.8l0.2-0.2L64.8,493.1z
					"/>
				<path class="st34" d="M69,465.3c-2.2-2.6-5.2-3.9-9.2-3.9s-6.9,1.3-9.2,3.9c-4.3,5.1-4,13.8-3.5,16.5c0.9,5.3,3.4,8.8,5.3,10.8
					c2.3,2.4,5.1,3.9,7.4,3.9c2.3,0,5.1-1.4,7.4-3.9c1.9-2,4.4-5.4,5.3-10.8C73,479.1,73.3,470.4,69,465.3z"/>
				<path class="st35" d="M51.6,473.3c2.3-0.8,4.9-0.4,7.4-0.5c2.5-0.1,5.3-1.2,6-3.5c0.5,4.1,6.8,5.3,7.7,9.4
					c0.5-5.2,1-15.1-5.9-16.3c-0.9-0.1-1.8-0.1-2.5-0.5c-0.5-0.2-0.8-0.6-1.3-0.9c-4.7-3.7-13.9,0.2-15.3,5.8
					c-1.2,4.7-1.7,9.2-0.9,14c-0.2-1.2,1.2-3.5,1.7-4.5C49.2,474.8,50.1,473.8,51.6,473.3z"/>
				<path class="st36" d="M72.5,479.7c0.1-0.4,0.7-0.5,1-0.2c0.3,0.3,0.4,0.7,0.3,1.1c-0.1,1.3-0.7,2.6-1.7,3.4"/>
				<path class="st36" d="M47.2,479.8c-0.1-0.4-0.7-0.5-1-0.2c-0.3,0.3-0.3,0.7-0.3,1.1c0.1,1.3,0.8,2.6,1.8,3.4"/>
			</g>
		</g>
	</g>
	<g>
		
			<image style="overflow:visible;opacity:0.25;" width="84" height="92" xlink:href="91D1A8A8C59B2EE5.png"  transform="matrix(1 0 0 1 83.9987 447.9987)">
		</image>
		<g>
			<g>
				<g>
					<path class="st14" d="M151.7,505.5c-0.1-0.1-0.2-0.2-0.3-0.3l-0.3-0.2l0,0l0,0c-1.5-1.1-9.3-4.8-16-7.8l-0.3-0.1l-0.5-0.2
						l-0.4,0.3l-0.2,0.1c-1.9,1.3-3.9,1.9-5.7,1.9c-1.8,0-3.8-0.7-5.7-1.9l-0.2-0.1l-0.4-0.3l-0.5,0.2l-0.3,0.1
						c-5.2,2.3-14.4,6.5-16,7.8l0,0l0,0l-0.3,0.3c-3.3,2.7-4.2,7.6-4.5,10.3l0,0.4l-0.1,0.8l0.8,0.2l0.4,0.1
						c4.5,1.1,16,3.8,26.8,3.8c5.9,0,11.9-0.8,17-1.7C147.8,514.9,150.1,510.3,151.7,505.5z"/>
				</g>
				<path class="st37" d="M132.9,494.1l-10.7-0.4l-1.4,4.8l0.4,0.2c0.2,0.1,4,1.7,7.7,1.7c1.9,0,3.9-0.4,5.2-1.8l0.2-0.2
					L132.9,494.1z"/>
				<path class="st38" d="M137.2,466.3c-2.2-2.6-5.2-3.9-9.2-3.9c-3.9,0-6.9,1.3-9.2,3.9c-4.3,5.1-4,13.8-3.5,16.5
					c0.9,5.3,3.4,8.8,5.3,10.8c2.3,2.4,5.1,3.9,7.4,3.9c2.3,0,5.1-1.4,7.4-3.9c1.9-2,4.4-5.4,5.3-10.8
					C141.2,480.2,141.5,471.5,137.2,466.3z"/>
				<path class="st39" d="M129.3,469.2c-0.1,1.9-0.6,3.6-2.5,5c-2.3,1.8-5.4,1.8-8.3,1.4c1.1,6,1.8,12.2,2,18.3c0,1.4,0,3-1,4
					c-1,1-2.6,1-4.1,1c-1,0-2.1-0.1-3.1-0.5c-0.9-0.4-1.8-1.3-1.7-2.4c1,0.4,2.2-0.2,2.8-1.1s0.7-2,0.7-3.1
					c0.2-3.8-0.4-7.7-0.7-11.5s-0.2-7.8,1.2-11.4c1.4-3.6,4.3-6.8,8-7.6c2.4-0.6,4.9-0.1,7.4,0.3c1.8,0.3,3.6,0.6,5.2,1.6
					c1.1,0.7,2,1.8,2.8,3c2,3.1,3,6.7,3.5,10.4s0.4,7.4,0.4,11c0,1.2,0,2.4,0.4,3.6c0.4,1.1,1.2,2.2,2.3,2.6c-0.2-0.1-2,1.5-2.3,1.7
					c-0.8,0.5-1.7,1.1-2.7,1.3c-1.6,0.4-3.9,0.1-5.3-0.7c1.9-1.8,2.6-4.9,3.2-7.3c0.8-3,1.2-6.1,0.9-9.2c-0.2-3.1-1.1-6.2-2.6-9
					c-0.6-1.1-1.3-2.8-2.4-3.4c-0.4-0.2-4.1-1-4.1-1.1C129.3,467.2,129.4,468.2,129.3,469.2z"/>
			</g>
		</g>
	</g>
	<g>
		
			<image style="overflow:visible;opacity:0.25;" width="89" height="93" xlink:href="91D1A8A8C59B2EE2.png"  transform="matrix(1 0 0 1 47.9987 458.9987)">
		</image>
		<g>
			<g>
				<path class="st8" d="M120.7,531.1l0-0.4c-0.2-2.7-1.1-7.5-4.5-10.3l-0.3-0.2l0,0l0,0c-1.5-1.1-9.3-4.8-16-7.8l-0.3-0.1l-0.5-0.2
					l-0.4,0.3l-0.2,0.1c-1.9,1.3-3.9,1.9-5.7,1.9c-1.8,0-3.8-0.7-5.7-1.9l-0.2-0.1l-0.4-0.3l-0.5,0.2l-0.3,0.1
					c-5.2,2.3-14.4,6.5-16,7.8l0,0l0,0l-0.3,0.3c-3.3,2.7-4.2,7.6-4.5,10.3l0,0.4l-0.1,0.8l0.8,0.2l0.4,0.1c4.5,1.1,16,3.8,26.8,3.8
					c10.8,0,22.4-2.6,26.8-3.8l0.4-0.1l0.8-0.2L120.7,531.1z"/>
				<path class="st40" d="M97.7,509.2L87,508.9l-1.4,4.8l0.4,0.2c0.2,0.1,4,1.7,7.7,1.7c1.9,0,3.9-0.4,5.2-1.8l0.2-0.2L97.7,509.2z"
					/>
				<path class="st41" d="M101.9,481.5c-2.2-2.6-5.2-3.9-9.2-3.9s-6.9,1.3-9.2,3.9c-4.3,5.1-4,13.8-3.5,16.5
					c0.9,5.3,3.4,8.8,5.3,10.8c2.3,2.4,5.1,3.9,7.4,3.9c2.3,0,5.1-1.4,7.4-3.9c1.9-2,4.4-5.4,5.3-10.8
					C105.9,495.3,106.3,486.6,101.9,481.5z"/>
				<g>
					<path d="M93,485.7c-1.7,1.5-4.8,1.8-6.2-0.1c-1.3,1.8,0.7,4.6-0.6,6.4c-0.8,1.1-2.6,1.2-3.6,2.1c-1.1,1-1.2,2.7-0.9,4.2
						c0.5,3,1.9,5.7,3.9,7.9c-1.7,0.6-3.7,0.4-5.2-0.5c-1.9-1.2-2.9-3.2-3.9-5.2c-0.7-1.5-1.5-3-1.7-4.6c-0.2-2,0.6-4.1,2.1-5.5
						c-1.1-2-1.2-4.5-0.4-6.7s2.6-3.9,4.7-4.8c0.7-1.6,2.2-2.9,3.9-3.3c1.7-0.4,3.6,0.2,4.9,1.4c0.8-1.5,2.9-2.2,4.4-1.5
						C98.4,477.2,95.3,483.6,93,485.7z"/>
				</g>
				<path d="M100.7,484.4c-0.7,2.3,1.1,5.1,3.5,5.3c-1.9,2.6-1.2,6.6,1.3,8.5c-2.3,1.2-3.3,4.4-2.1,6.7c-1.6,0.9-2.8,2.6-3,4.5
					c6-2.1,10.4-8,10.8-14.3c0.1-2.4-0.4-5-2.4-6.3c0.3-2.3,0.5-4.8-0.3-7c-0.9-2.2-3.1-4-5.4-3.7c0,0-1.2-1.4-1.4-1.5
					c-0.6-0.4-1.4-0.7-2.1-0.8c-1.5-0.1-3.5,0.7-4.1,2.2C94.3,480.9,98.2,484.3,100.7,484.4z"/>
			</g>
		</g>
	</g>
	<g>
		<g>
			
				<image style="overflow:visible;opacity:0.25;" width="88" height="97" xlink:href="91D1A8A8C59B2EED.png"  transform="matrix(1 0 0 1 30.6988 46.6988)">
			</image>
			<g>
				<g>
					<g>
						<path class="st42" d="M102.3,111.3c0,7.1-12.5,12.8-28,12.8s-28-5.7-28-12.8v-6.8h55.9V111.3z"/>
						<ellipse class="st43" cx="74.4" cy="104.5" rx="28" ry="12.8"/>
					</g>
					<g>
						<path class="st42" d="M102.3,100.3c0,7.1-12.5,12.8-28,12.8s-28-5.7-28-12.8v-6.8h55.9V100.3z"/>
						<ellipse class="st43" cx="74.4" cy="93.5" rx="28" ry="12.8"/>
					</g>
					<g>
						<path class="st42" d="M102.3,89.4c0,7.1-12.5,12.8-28,12.8s-28-5.7-28-12.8v-6.8h55.9V89.4z"/>
						<ellipse class="st43" cx="74.4" cy="82.6" rx="28" ry="12.8"/>
					</g>
					<g>
						<path class="st42" d="M102.3,78.9c0,7.1-12.5,12.8-28,12.8s-28-5.7-28-12.8v-6.8h55.9V78.9z"/>
						<ellipse class="st43" cx="74.4" cy="72.1" rx="28" ry="12.8"/>
					</g>
				</g>
			</g>
		</g>
		<text transform="matrix(5.611116e-02 -0.6956 0.9968 8.040000e-02 84.7971 80.5431)" class="st44 st45 st46">¢</text>
	</g>
	<g>
		
			<image style="overflow:visible;opacity:0.25;" width="85" height="86" xlink:href="91D1A8A8C59B2EEE.png"  transform="matrix(1 0 0 1 64 79)">
		</image>
		<g>
			<circle class="st7" cx="106.5" cy="119.2" r="27.4"/>
		</g>
	</g>
	<text transform="matrix(1 0 0 1 93.9497 131.9691)" class="st4 st45 st47">$</text>
	<text transform="matrix(1 0 0 1 176.5116 629.8914)" class="st48 st15 st49">- Hover over circles to learn more -</text>
</g>
</svg>
