<?xml version="1.0" encoding="utf-8"?>
<!-- Generator: Adobe Illustrator 24.0.1, SVG Export Plug-In . SVG Version: 6.00 Build 0)  -->
<svg version="1.1" id="Layer_1" xmlns="http://www.w3.org/2000/svg" xmlns:xlink="http://www.w3.org/1999/xlink" x="0px" y="0px"
	 viewBox="0 0 366 415" style="enable-background:new 0 0 366 415;" xml:space="preserve">
<style type="text/css">
	.st0{fill:none;stroke:#007E9D;stroke-width:4;stroke-miterlimit:10;}
	.st1{fill:url(#SVGID_1_);}
	.st2{fill:#22BBAD;}
	.st3{fill:#FAA61A;}
	.st4{fill:#77C043;}
	.st5{fill:#F1F1F1;}
	.st6{opacity:0.2;}
	.st7{fill:#00ADE4;}
	.st8{fill:#007E9D;}
	.st9{fill:#85DC43;}
	.st10{fill:#F6D652;}
	.st11{filter:url(#Adobe_OpacityMaskFilter);}
	.st12{opacity:0.3;mask:url(#SVGID_2_);}
	.st13{fill:#FFFFFF;}
	.st14{fill:none;stroke:#00467F;stroke-width:6;stroke-miterlimit:10;}
	.st15{fill:none;stroke:#0E617E;stroke-width:6;stroke-miterlimit:10;}
	.st16{fill:#0E617E;}
	.st17{fill:none;}
	.st18{fill:#989898;}
	.st19{fill:#B2B2B2;}
	.st20{fill:url(#SVGID_3_);}
	.st21{fill:none;stroke:url(#SVGID_4_);stroke-width:1.8046;stroke-linecap:round;stroke-miterlimit:10;}
	.st22{fill:none;stroke:url(#SVGID_5_);stroke-width:1.8046;stroke-linecap:round;stroke-miterlimit:10;}
	.st23{fill:none;stroke:url(#SVGID_6_);stroke-width:1.8046;stroke-linecap:round;stroke-miterlimit:10;}
	.st24{fill:none;stroke:url(#SVGID_7_);stroke-width:1.8046;stroke-linecap:round;stroke-miterlimit:10;}
	.st25{fill:none;stroke:url(#SVGID_8_);stroke-width:1.8046;stroke-linecap:round;stroke-miterlimit:10;}
	.st26{fill:#00467F;}
	.st27{fill:#C3B393;}
	.st28{fill:#DCCBA7;}
	.st29{fill:#AC9145;}
	.st30{fill:#D0C09A;}
	.st31{fill:#AC9676;}
	.st32{fill:#C0A980;}
	.st33{fill:#5E2D0D;}
	.st34{fill:#E4414B;}
	.st35{fill:#6D5C4A;}
	.st36{fill:#7C6A53;}
	.st37{fill:#E1D039;}
	.st38{fill:#F3E63B;}
	.st39{opacity:0.87;fill:#00467F;}
	.st40{fill:none;stroke:#FFFFFF;stroke-miterlimit:10;}
</style>
<symbol  id="benefits_x5F_graphic_x5F_hover_2" viewBox="-302.6 -320.6 605.6 641.1">
	<circle class="st0" cx="5.4" cy="18.8" r="262"/>
	<text transform="matrix(1 0 0 -1 -81.397 -317.374)" style="fill:#333333; font-family:'Montserrat-SemiBold'; font-size:12px;">- Hover over circles to learn more -</text>
	<linearGradient id="SVGID_1_" gradientUnits="userSpaceOnUse" x1="-138.1147" y1="162.3763" x2="148.9707" y2="-124.709">
		<stop  offset="0.459" style="stop-color:#22BBAD;stop-opacity:0.1"/>
		<stop  offset="0.8749" style="stop-color:#007E9D;stop-opacity:0.15"/>
		<stop  offset="1" style="stop-color:#00467F;stop-opacity:0.2"/>
	</linearGradient>
	<circle class="st1" cx="5.4" cy="18.8" r="203"/>
	<g>
		
			<image style="overflow:visible;opacity:0.3;" width="200" height="200" xlink:href="7153E7194313F1A6.png"  transform="matrix(1 0 0 -1 103 -65)">
		</image>
		<g>
			<circle class="st2" cx="202.8" cy="-162.9" r="63.6"/>
		</g>
	</g>
	<g>
		
			<image style="overflow:visible;opacity:0.3;" width="200" height="200" xlink:href="7153E7194313F1AA.png"  transform="matrix(1 0 0 -1 98 315)">
		</image>
		<g>
			<circle class="st3" cx="197.8" cy="216.6" r="63.6"/>
		</g>
	</g>
	<g>
		
			<image style="overflow:visible;opacity:0.3;" width="220" height="220" xlink:href="7153E7194313F1AB.png"  transform="matrix(1 0 0 -1 -302.5647 320.5647)">
		</image>
		<g>
			<circle class="st4" cx="-193" cy="213.3" r="69.9"/>
		</g>
	</g>
	<g>
		
			<image style="overflow:visible;" width="464" height="343" xlink:href="7153E7194313F1AC.png"  transform="matrix(1 0 0 -1 -221 201)">
		</image>
	</g>
	<g>
		
			<image style="overflow:visible;" width="375" height="251" xlink:href="7153E7194313F1AD.png"  transform="matrix(1 0 0 -1 -177 158)">
		</image>
	</g>
	<rect x="-140.8" y="106.2" class="st5" width="302.5" height="15.4"/>
	<g>
		
			<image style="overflow:visible;" width="79" height="79" xlink:href="7153E7194313F1A8.png"  transform="matrix(1 0 0 -1 -172 154)">
		</image>
	</g>
	<g>
		
			<image style="overflow:visible;" width="79" height="79" xlink:href="7153E7194313F1A9.png"  transform="matrix(1 0 0 -1 -161 154)">
		</image>
	</g>
	<g>
		
			<image style="overflow:visible;" width="79" height="79" xlink:href="7153E7194313F1B8.png"  transform="matrix(1 0 0 -1 -150 154)">
		</image>
	</g>
	<g>
		
			<image style="overflow:visible;" width="132" height="92" xlink:href="7153E7194313F1B9.png"  transform="matrix(1 0 0 -1 -56 -32)">
		</image>
	</g>
	<g>
		
			<image style="overflow:visible;" width="199" height="83" xlink:href="612066A6B1E1EC7E.png"  transform="matrix(1 0 0 -1 -89 -58)">
		</image>
	</g>
	<g>
		
			<image style="overflow:visible;" width="376" height="85" xlink:href="612066A6B1E1EC7A.png"  transform="matrix(1 0 0 -1 -177 142)">
		</image>
	</g>
	<g class="st6">
		
			<image style="overflow:visible;" width="327" height="223" xlink:href="612066A6B1E1EC79.png"  transform="matrix(1 0 0 -1 -177 130)">
		</image>
	</g>
	<g>
		
			<image style="overflow:visible;" width="140" height="133" xlink:href="612066A6B1E1EC76.png"  transform="matrix(1 0 0 -1 -151 100)">
		</image>
	</g>
	<g>
		
			<image style="overflow:visible;" width="140" height="133" xlink:href="612066A6B1E1EC69.png"  transform="matrix(1 0 0 -1 -90 100)">
		</image>
	</g>
	<g>
		
			<image style="overflow:visible;" width="140" height="133" xlink:href="612066A6B1E1EC6E.png"  transform="matrix(1 0 0 -1 -29 100)">
		</image>
	</g>
	<g>
		
			<image style="overflow:visible;" width="140" height="133" xlink:href="612066A6B1E1EC6C.png"  transform="matrix(1 0 0 -1 32 100)">
		</image>
	</g>
	<g>
		
			<image style="overflow:visible;" width="191" height="130" xlink:href="612066A6B1E1EC64.png"  transform="matrix(1 0 0 -1 -85 45)">
		</image>
	</g>
	<g>
		
			<image style="overflow:visible;" width="247" height="90" xlink:href="612066A6B1E1EC65.png"  transform="matrix(1 0 0 -1 -110 124)">
		</image>
	</g>
	<g>
		
			<image style="overflow:visible;opacity:0.3;" width="200" height="200" xlink:href="612066A6B1E1EC66.png"  transform="matrix(1 0 0 -1 -287 -75)">
		</image>
		<g>
			<circle class="st7" cx="-186.7" cy="-172.9" r="63.6"/>
		</g>
	</g>
	<circle class="st8" cx="5.4" cy="280.8" r="7"/>
	<circle class="st8" cx="246.4" cy="-84.2" r="7"/>
	<circle class="st8" cx="-55.6" cy="-236.2" r="7"/>
	<circle class="st8" cx="-18.6" cy="-242.2" r="7"/>
	<circle class="st8" cx="-250.6" cy="81.8" r="7"/>
	<g>
		
			<image style="overflow:visible;opacity:0.25;" width="87" height="102" xlink:href="612066A6B1E1EC8F.png"  transform="matrix(1 0 0 -1 134.8405 245.1595)">
		</image>
		<g>
			<polygon class="st9" points="152.6,177 169.2,179.9 177.7,165.1 203.1,218.9 178,230.7 			"/>
		</g>
	</g>
	<g>
		
			<image style="overflow:visible;opacity:0.25;" width="87" height="102" xlink:href="612066A6B1E1EC8C.png"  transform="matrix(1 0 0 -1 176.8405 245.1595)">
		</image>
		<g>
			<polygon class="st9" points="245.4,177 228.8,179.9 220.3,165.1 194.9,218.9 220,230.7 			"/>
		</g>
	</g>
	<g>
		
			<image style="overflow:visible;opacity:0.25;" width="116" height="116" xlink:href="612066A6B1E1EC8B.png"  transform="matrix(1 0 0 -1 139.8405 290.1595)">
		</image>
		<g>
			<g>
				<circle class="st10" cx="197.2" cy="235.8" r="40"/>
			</g>
			<defs>
				<filter id="Adobe_OpacityMaskFilter" filterUnits="userSpaceOnUse" x="157.2" y="-275.8" width="80.1" height="80.1">
					<feFlood  style="flood-color:white;flood-opacity:1" result="back"/>
					<feBlend  in="SourceGraphic" in2="back" mode="normal"/>
				</filter>
			</defs>
			<mask maskUnits="userSpaceOnUse" x="157.2" y="-275.8" width="80.1" height="80.1" id="SVGID_2_">
				<g class="st11">
					
						<image style="overflow:visible;" width="85" height="85" xlink:href="612066A6B1E1EC85.jpg"  transform="matrix(1 0 0 -1 155 278)">
					</image>
				</g>
			</mask>
			<g class="st12">
				<circle class="st13" cx="197.2" cy="235.8" r="40"/>
			</g>
		</g>
	</g>
	<g>
		<path class="st13" d="M197.2,262.1c14.5,0,26.3-11.8,26.3-26.3s-11.8-26.3-26.3-26.3c-14.5,0-26.3,11.8-26.3,26.3
			S182.7,262.1,197.2,262.1 M197.2,264.4c-15.8,0-28.6-12.8-28.6-28.6s12.8-28.6,28.6-28.6s28.6,12.8,28.6,28.6
			S213,264.4,197.2,264.4L197.2,264.4z"/>
	</g>
	<polygon class="st4" points="213.2,244.3 209.2,248.3 191.9,230.9 184.2,238.6 180.2,234.6 191.9,222.9 	"/>
	<g>
		
			<image style="overflow:visible;opacity:0.25;" width="125" height="125" xlink:href="612066A6B1E1EC87.png"  transform="matrix(1 0 0 -1 141 -103)">
		</image>
		<g>
			<circle class="st5" cx="203.4" cy="-162.2" r="44"/>
			<circle class="st14" cx="203.4" cy="-162.2" r="44"/>
		</g>
	</g>
	<g>
		
			<image style="overflow:visible;opacity:0.25;" width="56" height="80" xlink:href="612066A6B1E1EC84.png"  transform="matrix(1 0 0 -1 181 -122)">
		</image>
		<g>
			<g>
				<polyline class="st15" points="202.4,-142.8 202.4,-164.2 215.3,-177.1 				"/>
				<g>
					<polygon class="st16" points="196.4,-144.5 202.4,-134.2 208.4,-144.5 					"/>
				</g>
				<g>
					<polygon class="st16" points="209.9,-180.1 221.4,-183.2 218.3,-171.6 					"/>
				</g>
			</g>
		</g>
	</g>
	<g>
		<circle class="st17" cx="-186.7" cy="-172.9" r="56.7"/>
	</g>
	<g class="st6">
		
			<image style="overflow:visible;opacity:0.25;" width="128" height="127" xlink:href="612066A6B1E1ECBB.png"  transform="matrix(1 0 0 -1 -251 -100)">
		</image>
		<g>
			<circle class="st5" cx="-186.7" cy="-160.4" r="48.3"/>
		</g>
	</g>
	<g>
		<g>
			
				<image style="overflow:visible;opacity:0.25;" width="41" height="36" xlink:href="612066A6B1E1ECBF.png"  transform="matrix(1 0 0 -1 -208 -137)">
			</image>
			<g>
				<path class="st18" d="M-192.7-149.7v-2.1c0-0.3,0.2-0.5,0.5-0.5h0.3c0.3,0,0.5-0.2,0.5-0.5v-1.5c0-0.3,0.2-0.5,0.5-0.5h7
					c0.3,0,0.5,0.2,0.5,0.5v1.5c0,0.3,0.2,0.5,0.5,0.5h0.3c0.3,0,0.5,0.2,0.5,0.5v2.1c0,0.3-0.2,0.5-0.5,0.5h-9.7
					C-192.5-149.2-192.7-149.4-192.7-149.7z"/>
			</g>
		</g>
		<path class="st19" d="M-182.4-150.5h-9.9c-0.2,0-0.4-0.2-0.4-0.4v-1.1c0-0.2,0.2-0.4,0.4-0.4h9.9c0.2,0,0.4,0.2,0.4,0.4v1.1
			C-182-150.7-182.2-150.5-182.4-150.5z"/>
		<path class="st19" d="M-183.8-153.4h-7.2c-0.2,0-0.4-0.1-0.4-0.3v-0.8c0-0.2,0.2-0.3,0.4-0.3h7.2c0.2,0,0.4,0.1,0.4,0.3v0.8
			C-183.4-153.5-183.6-153.4-183.8-153.4z"/>
		<g>
			
				<image style="overflow:visible;opacity:0.25;" width="37" height="42" xlink:href="612066A6B1E1EC82.png"  transform="matrix(1 0 0 -1 -205.7672 -116.2328)">
			</image>
			<g>
				<radialGradient id="SVGID_3_" cx="-187.5043" cy="-135.716" r="12.4599" gradientUnits="userSpaceOnUse">
					<stop  offset="0" style="stop-color:#FCCF83"/>
					<stop  offset="0.2633" style="stop-color:#FCCE80"/>
					<stop  offset="0.4482" style="stop-color:#FCCA77"/>
					<stop  offset="0.6092" style="stop-color:#FCC468"/>
					<stop  offset="0.7565" style="stop-color:#FBBC52"/>
					<stop  offset="0.8931" style="stop-color:#FBB136"/>
					<stop  offset="1" style="stop-color:#FAA61A"/>
				</radialGradient>
				<path class="st20" d="M-187.5-122.3c-0.1,0-0.2,0-0.4,0c-5.4-0.2-10-4.2-10.8-9.5c-0.6-3.5,0.5-6.9,2.7-9.4
					c1.6-1.8,2.5-4.1,2.5-6.5v-0.9c0-0.4,0.3-0.7,0.7-0.7h10.7c0.4,0,0.7,0.3,0.7,0.7v0.9c0,2.4,0.9,4.7,2.5,6.4
					c1.8,2.1,2.9,4.7,2.9,7.6C-176.1-127.4-181.2-122.3-187.5-122.3z"/>
			</g>
		</g>
		<linearGradient id="SVGID_4_" gradientUnits="userSpaceOnUse" x1="-187.5043" y1="-120.0287" x2="-187.5043" y2="-112.2641">
			<stop  offset="0" style="stop-color:#FCCF83"/>
			<stop  offset="0.1616" style="stop-color:#FCCC7D"/>
			<stop  offset="0.3846" style="stop-color:#FCC66B"/>
			<stop  offset="0.6434" style="stop-color:#FBBA4E"/>
			<stop  offset="0.927" style="stop-color:#FAAB26"/>
			<stop  offset="1" style="stop-color:#FAA61A"/>
		</linearGradient>
		<line class="st21" x1="-187.5" y1="-119.1" x2="-187.5" y2="-113.2"/>
		
			<linearGradient id="SVGID_5_" gradientUnits="userSpaceOnUse" x1="7651.0059" y1="-1542.0997" x2="7655.2617" y2="-1537.8436" gradientTransform="matrix(0.7071 0.7071 -0.7071 0.7071 -6700.1094 -4443.877)">
			<stop  offset="0" style="stop-color:#FCCF83"/>
			<stop  offset="0.1616" style="stop-color:#FCCC7D"/>
			<stop  offset="0.3846" style="stop-color:#FCC66B"/>
			<stop  offset="0.6434" style="stop-color:#FBBA4E"/>
			<stop  offset="0.927" style="stop-color:#FAAB26"/>
			<stop  offset="1" style="stop-color:#FAA61A"/>
		</linearGradient>
		<line class="st22" x1="-197.5" y1="-123.3" x2="-201.7" y2="-119.1"/>
		
			<linearGradient id="SVGID_6_" gradientUnits="userSpaceOnUse" x1="12189.6035" y1="-8090.9365" x2="12191.4072" y2="-8090.9365" gradientTransform="matrix(4.489700e-11 1 -1 4.489700e-11 -8295.5059 -12323.8652)">
			<stop  offset="0" style="stop-color:#FCCF83"/>
			<stop  offset="0.1616" style="stop-color:#FCCC7D"/>
			<stop  offset="0.3846" style="stop-color:#FCC66B"/>
			<stop  offset="0.6434" style="stop-color:#FBBA4E"/>
			<stop  offset="0.927" style="stop-color:#FAAB26"/>
			<stop  offset="1" style="stop-color:#FAA61A"/>
		</linearGradient>
		<line class="st23" x1="-201.6" y1="-133.4" x2="-207.5" y2="-133.4"/>
		
			<linearGradient id="SVGID_7_" gradientUnits="userSpaceOnUse" x1="-8161.3921" y1="-12494.1562" x2="-8163.1968" y2="-12494.1562" gradientTransform="matrix(-4.489700e-11 -1 1 -4.489700e-11 12323.8652 -8295.5059)">
			<stop  offset="0" style="stop-color:#FCCF83"/>
			<stop  offset="0.1616" style="stop-color:#FCCC7D"/>
			<stop  offset="0.3846" style="stop-color:#FCC66B"/>
			<stop  offset="0.6434" style="stop-color:#FBBA4E"/>
			<stop  offset="0.927" style="stop-color:#FAAB26"/>
			<stop  offset="1" style="stop-color:#FAA61A"/>
		</linearGradient>
		<line class="st24" x1="-173.3" y1="-133.2" x2="-167.3" y2="-133.2"/>
		
			<linearGradient id="SVGID_8_" gradientUnits="userSpaceOnUse" x1="-6736.3408" y1="-4655.646" x2="-6740.5972" y2="-4651.3901" gradientTransform="matrix(0.7071 -0.7071 0.7071 0.7071 7879.9883 -1595.3971)">
			<stop  offset="0" style="stop-color:#FCCF83"/>
			<stop  offset="0.1616" style="stop-color:#FCCC7D"/>
			<stop  offset="0.3846" style="stop-color:#FCC66B"/>
			<stop  offset="0.6434" style="stop-color:#FBBA4E"/>
			<stop  offset="0.927" style="stop-color:#FAAB26"/>
			<stop  offset="1" style="stop-color:#FAA61A"/>
		</linearGradient>
		<line class="st25" x1="-177.5" y1="-123.2" x2="-173.3" y2="-119"/>
	</g>
	<g>
		
			<image style="overflow:visible;opacity:0.25;" width="84" height="93" xlink:href="612066A6B1E1EC83.png"  transform="matrix(1 0 0 -1 -261.0013 -132.9987)">
		</image>
		<g>
			<g>
				<g>
					<path class="st26" d="M-193.4-200.9c-0.2,2.7-1.1,7.5-4.5,10.3l-0.3,0.2l0,0l0,0c-1.5,1.1-9.3,4.8-16,7.8l-0.3,0.1l-0.5,0.2
						l-0.4-0.3l-0.2-0.1c-1.9-1.3-3.9-1.9-5.7-1.9c-1.8,0-3.8,0.7-5.7,1.9l-0.2,0.1l-0.4,0.3l-0.5-0.2l-0.3-0.1
						c-5.2-2.3-14.3-6.4-16-7.8c1.6-5.1,3.9-9.9,6.7-14.3c4.9-0.8,10.7-1.6,16.4-1.6c10.8,0,22.4,2.6,26.8,3.8l0.4,0.1l0.8,0.2
						l-0.1,0.8L-193.4-200.9z"/>
				</g>
				<path class="st27" d="M-216.4-179.5l-10.7,0.4l-1.4-4.8l0.4-0.2c0.2-0.1,4-1.7,7.7-1.7c1.9,0,3.9,0.4,5.2,1.8l0.2,0.2
					L-216.4-179.5z"/>
				<path class="st28" d="M-212.2-151.8c-2.2,2.6-5.2,3.9-9.2,3.9c-3.9,0-6.9-1.3-9.2-3.9c-4.3-5.1-4-13.8-3.5-16.5
					c0.9-5.3,3.4-8.8,5.3-10.8c2.3-2.4,5.1-3.9,7.4-3.9c2.3,0,5.1,1.4,7.4,3.9c1.9,2,4.4,5.4,5.3,10.8
					C-208.2-165.6-207.9-156.9-212.2-151.8z"/>
				<path class="st29" d="M-229.6-159.8c2.3,0.8,4.9,0.4,7.4,0.5c2.5,0.1,5.3,1.2,6,3.5c0.5-4.1,6.8-5.3,7.7-9.4
					c0.5,5.2,1,15.1-5.9,16.3c-0.9,0.1-1.8,0.1-2.5,0.5c-0.5,0.2-0.8,0.6-1.3,0.9c-4.7,3.7-13.9-0.2-15.3-5.8
					c-1.2-4.7-1.7-9.2-0.9-14c-0.2,1.2,1.2,3.5,1.7,4.5C-232-161.2-231.1-160.3-229.6-159.8z"/>
				<path class="st30" d="M-208.7-166.2c0.1,0.4,0.7,0.5,1,0.2c0.3-0.3,0.4-0.7,0.3-1.1c-0.1-1.3-0.7-2.6-1.7-3.4"/>
				<path class="st30" d="M-234-166.3c-0.1,0.4-0.7,0.5-1,0.2c-0.3-0.3-0.3-0.7-0.3-1.1c0.1-1.3,0.8-2.6,1.8-3.4"/>
			</g>
		</g>
	</g>
	<g>
		
			<image style="overflow:visible;opacity:0.25;" width="85" height="93" xlink:href="612066A6B1E1ECA0.png"  transform="matrix(1 0 0 -1 -198.0013 -133.9987)">
		</image>
		<g>
			<g>
				<g>
					<path class="st16" d="M-129.5-192c-0.1,0.1-0.2,0.2-0.3,0.3l-0.3,0.2l0,0l0,0c-1.5,1.1-9.3,4.8-16,7.8l-0.3,0.1l-0.5,0.2
						l-0.4-0.3l-0.2-0.1c-1.9-1.3-3.9-1.9-5.7-1.9s-3.8,0.7-5.7,1.9l-0.2,0.1l-0.4,0.3l-0.5-0.2l-0.3-0.1c-5.2-2.3-14.4-6.5-16-7.8
						l0,0l0,0l-0.3-0.3c-3.3-2.7-4.2-7.6-4.5-10.3l0-0.4l-0.1-0.8l0.8-0.2l0.4-0.1c4.5-1.1,16-3.8,26.8-3.8c5.9,0,11.9,0.8,17,1.7
						C-133.4-201.4-131.1-196.8-129.5-192z"/>
				</g>
				<path class="st31" d="M-148.3-180.6l-10.7,0.4l-1.4-4.8l0.4-0.2c0.2-0.1,4-1.7,7.7-1.7c1.9,0,3.9,0.4,5.2,1.8l0.2,0.2
					L-148.3-180.6z"/>
				<path class="st32" d="M-144-152.8c-2.2,2.6-5.2,3.9-9.2,3.9c-3.9,0-6.9-1.3-9.2-3.9c-4.3-5.1-4-13.8-3.5-16.5
					c0.9-5.3,3.4-8.8,5.3-10.8c2.3-2.4,5.1-3.9,7.4-3.9c2.3,0,5.1,1.4,7.4,3.9c1.9,2,4.4,5.4,5.3,10.8
					C-140-166.7-139.7-157.9-144-152.8z"/>
				<path class="st33" d="M-151.9-155.6c-0.1-1.9-0.6-3.6-2.5-5c-2.3-1.8-5.4-1.8-8.3-1.4c1.1-6,1.8-12.2,2-18.3c0-1.4,0-3-1-4
					c-1-1-2.6-1-4.1-1c-1,0-2.1,0.1-3.1,0.5c-0.9,0.4-1.8,1.3-1.7,2.4c1-0.4,2.2,0.2,2.8,1.1c0.6,0.9,0.7,2,0.7,3.1
					c0.2,3.8-0.4,7.7-0.7,11.5c-0.3,3.8-0.2,7.8,1.2,11.4c1.4,3.6,4.3,6.8,8,7.6c2.4,0.6,4.9,0.1,7.4-0.3c1.8-0.3,3.6-0.6,5.2-1.6
					c1.1-0.7,2-1.8,2.8-3c2-3.1,3-6.7,3.5-10.4s0.4-7.4,0.4-11c0-1.2,0-2.4,0.4-3.6c0.4-1.1,1.2-2.2,2.3-2.6c-0.2,0.1-2-1.5-2.3-1.7
					c-0.8-0.5-1.7-1.1-2.7-1.3c-1.6-0.4-3.9-0.1-5.3,0.7c1.9,1.8,2.6,4.9,3.2,7.3c0.8,3,1.2,6.1,0.9,9.2c-0.2,3.1-1.1,6.2-2.6,9
					c-0.6,1.1-1.3,2.8-2.4,3.4c-0.4,0.2-4.1,1-4.1,1.1C-151.9-153.7-151.8-154.7-151.9-155.6z"/>
			</g>
		</g>
	</g>
	<g>
		
			<image style="overflow:visible;opacity:0.25;" width="89" height="94" xlink:href="612066A6B1E1ECE5.png"  transform="matrix(1 0 0 -1 -233.0013 -144.9987)">
		</image>
		<g>
			<g>
				<path class="st34" d="M-160.5-217.6l0,0.4c-0.2,2.7-1.1,7.5-4.5,10.3l-0.3,0.2l0,0l0,0c-1.5,1.1-9.3,4.8-16,7.8l-0.3,0.1
					l-0.5,0.2l-0.4-0.3l-0.2-0.1c-1.9-1.3-3.9-1.9-5.7-1.9c-1.8,0-3.8,0.7-5.7,1.9l-0.2,0.1l-0.4,0.3l-0.5-0.2l-0.3-0.1
					c-5.2-2.3-14.4-6.5-16-7.8l0,0l0,0l-0.3-0.3c-3.3-2.7-4.2-7.6-4.5-10.3l0-0.4l-0.1-0.8l0.8-0.2l0.4-0.1c4.5-1.1,16-3.8,26.8-3.8
					c10.8,0,22.4,2.6,26.8,3.8l0.4,0.1l0.8,0.2L-160.5-217.6z"/>
				<path class="st35" d="M-183.5-195.7l-10.7,0.4l-1.4-4.8l0.4-0.2c0.2-0.1,4-1.7,7.7-1.7c1.9,0,3.9,0.4,5.2,1.8l0.2,0.2
					L-183.5-195.7z"/>
				<path class="st36" d="M-179.3-168c-2.2,2.6-5.2,3.9-9.2,3.9c-3.9,0-6.9-1.3-9.2-3.9c-4.3-5.1-4-13.8-3.5-16.5
					c0.9-5.3,3.4-8.8,5.3-10.8c2.3-2.4,5.1-3.9,7.4-3.9c2.3,0,5.1,1.4,7.4,3.9c1.9,2,4.4,5.4,5.3,10.8
					C-175.3-181.8-174.9-173.1-179.3-168z"/>
				<g>
					<path d="M-188.2-172.2c-1.7-1.5-4.8-1.8-6.2,0.1c-1.3-1.8,0.7-4.6-0.6-6.4c-0.8-1.1-2.6-1.2-3.6-2.1c-1.1-1-1.2-2.7-0.9-4.2
						c0.5-3,1.9-5.7,3.9-7.9c-1.7-0.6-3.7-0.4-5.2,0.5c-1.9,1.2-2.9,3.2-3.9,5.2c-0.7,1.5-1.5,3-1.7,4.6c-0.2,2,0.6,4.1,2.1,5.5
						c-1.1,2-1.2,4.5-0.4,6.7s2.6,3.9,4.7,4.8c0.7,1.6,2.2,2.9,3.9,3.3c1.7,0.4,3.6-0.2,4.9-1.4c0.8,1.5,2.9,2.2,4.4,1.5
						C-182.8-163.7-185.9-170.1-188.2-172.2z"/>
				</g>
				<path d="M-180.5-170.9c-0.7-2.3,1.1-5.1,3.5-5.3c-1.9-2.6-1.2-6.6,1.3-8.5c-2.3-1.2-3.3-4.4-2.1-6.7c-1.6-0.9-2.8-2.6-3-4.5
					c6,2.1,10.4,8,10.8,14.3c0.1,2.4-0.4,5-2.4,6.3c0.3,2.3,0.5,4.8-0.3,7c-0.9,2.2-3.1,4-5.4,3.7c0,0-1.2,1.4-1.4,1.5
					c-0.6,0.4-1.4,0.7-2.1,0.8c-1.5,0.1-3.5-0.7-4.1-2.2C-186.9-167.4-183-170.7-180.5-170.9z"/>
			</g>
		</g>
	</g>
	<g>
		<g>
			
				<image style="overflow:visible;opacity:0.25;" width="107" height="118" xlink:href="612066A6B1E1ECE6.png"  transform="matrix(1 0 0 -1 -263.6494 291.6494)">
			</image>
			<g>
				<g>
					<g>
						<path class="st37" d="M-176.2,212.8c0-8.6-15.3-15.6-34.1-15.6s-34.1,7-34.1,15.6v8.3h68.2V212.8z"/>
						<ellipse class="st38" cx="-210.3" cy="221" rx="34.1" ry="15.6"/>
					</g>
					<g>
						<path class="st37" d="M-176.2,226.2c0-8.6-15.3-15.6-34.1-15.6s-34.1,7-34.1,15.6v8.3h68.2V226.2z"/>
						<ellipse class="st38" cx="-210.3" cy="234.5" rx="34.1" ry="15.6"/>
					</g>
					<g>
						<path class="st37" d="M-176.2,239.4c0-8.6-15.3-15.6-34.1-15.6s-34.1,7-34.1,15.6v8.3h68.2V239.4z"/>
						<ellipse class="st38" cx="-210.3" cy="247.7" rx="34.1" ry="15.6"/>
					</g>
					<g>
						<path class="st37" d="M-176.2,252.3c0-8.6-15.3-15.6-34.1-15.6s-34.1,7-34.1,15.6v8.3h68.2V252.3z"/>
						<ellipse class="st38" cx="-210.3" cy="260.6" rx="34.1" ry="15.6"/>
					</g>
				</g>
			</g>
		</g>
		
			<text transform="matrix(5.611116e-02 0.6956 0.9968 -8.040000e-02 -197.5863 250.2483)" style="fill:#E7D638; font-family:'Montserrat-Bold'; font-size:48.7191px;">¢</text>
	</g>
	<g>
		
			<image style="overflow:visible;opacity:0.25;" width="105" height="104" xlink:href="612066A6B1E1ECEA.png"  transform="matrix(1 0 0 -1 -223.2823 251.2823)">
		</image>
		<g>
			<circle class="st5" cx="-171.1" cy="203.1" r="33.4"/>
		</g>
	</g>
	<text transform="matrix(1 0 0 -1 -186.4246 187.561)" class="st4" style="font-family:'Montserrat-Bold'; font-size:47.9953px;">$</text>
	<circle class="st39" cx="5.4" cy="18.8" r="203"/>
	<text transform="matrix(1 0 0 -1 -58.8765 123.1824)" class="st13" style="font-family:'Montserrat-Bold'; font-size:22px;">Cost-Saving</text>
	<line class="st40" x1="-104.9" y1="98.5" x2="115.2" y2="98.5"/>
	<line class="st40" x1="-104.9" y1="-94.2" x2="115.2" y2="-94.2"/>
	<rect x="-134" y="-124.8" class="st17" width="291.2" height="199.5"/>
	<text transform="matrix(1 0 0 -1 -124.2883 60.5391)"><tspan x="0" y="0" class="st13" style="font-family:'Montserrat-Regular'; font-size:19px;">With tried and tested UI and </tspan><tspan x="14.7" y="25.2" class="st13" style="font-family:'Montserrat-Regular'; font-size:19px;">design elements ready to  </tspan><tspan x="1.8" y="50.4" class="st13" style="font-family:'Montserrat-Regular'; font-size:19px;">go, the design system elimi</tspan><tspan x="262.6" y="50.4" class="st13" style="font-family:'Montserrat-Regular'; font-size:19px;">-</tspan><tspan x="-4.2" y="75.6" class="st13" style="font-family:'Montserrat-Regular'; font-size:19px;">nates inefficiencies and leads </tspan><tspan x="11" y="100.8" class="st13" style="font-family:'Montserrat-Regular'; font-size:19px;">to fewer wasted resources </tspan><tspan x="0.9" y="126" class="st13" style="font-family:'Montserrat-Regular'; font-size:19px;">and significant cost-savings.</tspan></text>
	<polygon class="st4" points="-147.3,160.4 -128.1,160.4 -132.5,178.2 	"/>
</symbol>
<use xlink:href="#benefits_x5F_graphic_x5F_hover_2"  width="605.6" height="641.1" x="-302.6" y="-320.6" transform="matrix(0.6334 0 0 -0.6334 179.8827 196.0196)" style="overflow:visible;"/>
</svg>
