<?xml version="1.0" encoding="utf-8"?>
<!-- Generator: Adobe Illustrator 23.0.3, SVG Export Plug-In . SVG Version: 6.00 Build 0)  -->
<svg version="1.1" id="Layer_1" xmlns="http://www.w3.org/2000/svg" xmlns:xlink="http://www.w3.org/1999/xlink" x="0px" y="0px"
	 width="41.8px" height="42.1px" viewBox="0 0 41.8 42.1" style="enable-background:new 0 0 41.8 42.1;" xml:space="preserve">
<style type="text/css">
	.st0{fill:#B2B2B2;}
	.st1{fill:#99503A;}
	.st2{fill:#8C30AA;}
	.st3{fill:#22BBAD;}
	.st4{fill:#16487D;}
	.st5{fill:#1A2A57;}
	.st6{fill:#FAA61A;}
	.st7{fill:#E4414B;}
	.st8{fill:#C46F49;}
	.st9{fill:#231F20;}
	.st10{fill:#D1D3D4;}
	.st11{filter:url(#Adobe_OpacityMaskFilter);}
	.st12{opacity:0.55;mask:url(#SVGID_1_);}
	.st13{fill:#FFFFFF;}
	.st14{fill:url(#SVGID_2_);}
	.st15{fill:#808285;}
	.st16{opacity:0.5;fill:#F1F2F2;}
	.st17{fill:#D13924;}
	.st18{fill:#E2DD17;}
	.st19{fill:#25CE31;}
	.st20{fill:none;stroke:#D1D3D4;stroke-width:0.2909;stroke-miterlimit:10;}
	.st21{fill:#007897;}
	.st22{fill:#A7A9AC;}
	.st23{opacity:8.000000e-02;}
	.st24{fill:#0E617E;}
	.st25{fill:#77C043;}
	.st26{fill:#00ADE4;}
	.st27{opacity:0.5;fill:#007897;}
	.st28{opacity:0.5;fill:#D1D3D4;}
	.st29{fill:none;stroke:#D1D3D4;stroke-width:0.4531;stroke-miterlimit:10;}
	.st30{opacity:0.1;fill:#00467F;}
	.st31{fill:#00467F;}
	.st32{opacity:0.5;fill:#E5E5E5;}
	.st33{fill:#E5E5E5;}
	.st34{fill:none;stroke:#16487D;stroke-width:1.0762;stroke-miterlimit:10;}
	.st35{fill:none;stroke:#16487D;stroke-width:0.8072;stroke-miterlimit:10;}
	.st36{fill:url(#SVGID_3_);}
	.st37{fill:url(#SVGID_4_);}
	.st38{fill:#333333;}
	.st39{filter:url(#Adobe_OpacityMaskFilter_1_);}
	.st40{opacity:0.75;mask:url(#SVGID_5_);}
	.st41{filter:url(#Adobe_OpacityMaskFilter_2_);}
	.st42{opacity:0.75;mask:url(#SVGID_6_);}
	.st43{fill:#989898;}
	.st44{opacity:0.5;fill:#22BBAD;}
	.st45{opacity:0.5;fill:#00ADE4;}
	.st46{fill:#808080;}
	.st47{fill:#F1F1F1;}
	.st48{opacity:0.5;fill:#FAA61A;}
	.st49{opacity:0.5;fill:#77C043;}
	.st50{opacity:0.3;fill:#E5E5E5;}
	.st51{opacity:0.6;}
	.st52{fill:#666666;}
	.st53{fill:#CC5E6E;}
	.st54{fill:#DD6672;}
	.st55{fill:#E06E7E;}
	.st56{fill:#F9B3C0;}
	.st57{fill:#EFACBB;}
	.st58{opacity:0.5;}
	.st59{fill:#EC909F;}
	.st60{opacity:0.1;fill:#808080;}
	.st61{opacity:0.7;}
	.st62{opacity:0.6;fill:none;stroke:#F1F1F1;stroke-width:1.175;stroke-miterlimit:10;}
	.st63{fill:none;stroke:#000000;stroke-width:1.4148;stroke-miterlimit:10;}
	.st64{opacity:0.2;fill:#B2B2B2;}
	.st65{fill:none;stroke:#E5E5E5;stroke-width:3.1138;stroke-miterlimit:10;}
	.st66{fill:#F6D3B5;}
	.st67{fill:#DEB188;}
	.st68{fill:#393738;}
	.st69{fill:#E8961F;}
	.st70{fill:#C4A835;}
	.st71{fill:#C66799;}
	.st72{fill:#03D8FE;}
	.st73{filter:url(#Adobe_OpacityMaskFilter_3_);}
	.st74{opacity:0.55;mask:url(#SVGID_7_);}
	.st75{fill:url(#SVGID_8_);}
	.st76{opacity:0.2;fill:#FFFFFF;}
	.st77{fill:url(#SVGID_9_);}
	.st78{fill:url(#SVGID_10_);}
	.st79{filter:url(#Adobe_OpacityMaskFilter_4_);}
	.st80{opacity:0.75;mask:url(#SVGID_11_);}
	.st81{filter:url(#Adobe_OpacityMaskFilter_5_);}
	.st82{opacity:0.75;mask:url(#SVGID_12_);}
</style>
<g>
	<circle class="st30" cx="13.9" cy="13.9" r="13.9"/>
	<g>
		<path class="st31" d="M41.4,36l-11,6c-0.3,0.2-0.6,0.1-0.9-0.1c-0.4-0.4-2.5-2.3-7.9-3.5c-0.1,0-0.2-0.1-0.3-0.1l-7-5.7
			c-0.5-0.1-2-0.6-2.6-1.8c-0.3-0.6-0.4-1.3-0.1-2c0.2-0.6,0.6-1,1.2-1.3c0.7-0.3,1.7-0.4,2.8-0.2c0.9,0.2,1.5,0.4,1.7,0.4
			c0,0,0.1,0,0.1,0.1l1.2,0.8l-7.5-13.7c-0.4-0.7-0.4-1.5-0.1-2.3c0.3-0.7,0.8-1.2,1.5-1.6c0.7-0.4,1.4-0.5,2-0.4
			c0.5,0.1,1.3,0.4,1.8,1.4l2.4,4.3c0.2-0.7,0.7-1.3,1.4-1.6c0.6-0.3,1.3-0.4,2-0.2c0.3,0.1,0.6,0.3,0.9,0.5
			c0.2-0.6,0.6-1.1,1.2-1.4c1-0.6,2.5-0.5,3.6,0.7c0.2-0.5,0.6-0.9,1.1-1.2c1.2-0.7,2.9-0.5,3.7,0.8l5.6,10.2c0.5,0.9,1,3,1.4,5.1
			c0.4,1.6,0.7,3.2,1,3.7l1.2,2.2C41.9,35.3,41.8,35.8,41.4,36z M30.2,40.8l10.3-5.7l-1-1.8c-0.3-0.6-0.7-2.2-1.1-4
			c-0.4-1.9-0.9-4-1.3-4.8l-5.6-10.2c-0.4-0.7-1.4-0.7-2.1-0.4c-0.4,0.2-1,0.7-0.5,1.6l1.3,2.4c0.1,0.2,0.1,0.5,0,0.7
			C30.2,18.8,30,19,29.6,19c-0.2,0-0.4-0.1-0.5-0.3c-0.1-0.2-0.5-0.9-1.8-3.2c-0.7-1.3-1.8-1.3-2.5-0.9c-0.6,0.3-1,0.9-0.6,1.6
			l1.6,3c0.2,0.4,0,0.7,0,0.8c-0.1,0.1-0.4,0.3-0.8,0.1c-0.1-0.1-0.3-0.2-0.4-0.3l-1.8-3.2c-0.3-0.5-0.7-0.9-1.1-1
			c-0.4-0.1-0.7-0.1-1.1,0.1c-1,0.6-1.1,1.7-0.6,2.5l1.9,3.5c0.1,0.2,0.1,0.5,0,0.6c-0.1,0.1-0.2,0.3-0.6,0.3
			c-0.3,0-0.5-0.1-0.6-0.4l-5.3-9.7c-0.2-0.5-0.6-0.7-1-0.8c-0.4-0.1-0.8,0-1.2,0.2c-0.8,0.4-1.4,1.4-0.9,2.3l8.4,15.2
			c0.2,0.3,0.1,0.6-0.1,0.9c-0.2,0.2-0.6,0.3-0.9,0.1l-2.6-1.6c-0.8-0.3-2.6-0.7-3.6-0.3c-0.3,0.1-0.5,0.3-0.6,0.6
			c-0.1,0.4-0.1,0.7,0,1c0.4,0.7,1.4,1.1,2,1.2c0.1,0,0.2,0.1,0.3,0.1l7,5.7c2.4,0.5,4.4,1.2,6.1,2.1C29.1,40,29.8,40.5,30.2,40.8z"
			/>
	</g>
</g>
</svg>
