<?xml version="1.0" encoding="utf-8"?>
<!-- Generator: Adobe Illustrator 23.0.3, SVG Export Plug-In . SVG Version: 6.00 Build 0)  -->
<svg version="1.1" id="Layer_1" xmlns="http://www.w3.org/2000/svg" xmlns:xlink="http://www.w3.org/1999/xlink" x="0px" y="0px"
	 width="181.2px" height="185.5px" viewBox="0 0 181.2 185.5" style="enable-background:new 0 0 181.2 185.5;" xml:space="preserve"
	>
<style type="text/css">
	.st0{fill:#B2B2B2;}
	.st1{fill:#99503A;}
	.st2{fill:#8C30AA;}
	.st3{fill:#22BBAD;}
	.st4{fill:#16487D;}
	.st5{fill:#1A2A57;}
	.st6{fill:#FAA61A;}
	.st7{fill:#E4414B;}
	.st8{fill:#C46F49;}
	.st9{fill:#231F20;}
	.st10{fill:#D1D3D4;}
	.st11{filter:url(#Adobe_OpacityMaskFilter);}
	.st12{opacity:0.55;mask:url(#SVGID_1_);}
	.st13{fill:#FFFFFF;}
	.st14{fill:url(#SVGID_2_);}
	.st15{fill:#808285;}
	.st16{opacity:0.5;fill:#F1F2F2;}
	.st17{fill:#D13924;}
	.st18{fill:#E2DD17;}
	.st19{fill:#25CE31;}
	.st20{fill:none;stroke:#D1D3D4;stroke-width:0.2909;stroke-miterlimit:10;}
	.st21{fill:#007897;}
	.st22{fill:#A7A9AC;}
	.st23{opacity:8.000000e-02;}
	.st24{fill:#0E617E;}
	.st25{fill:#77C043;}
	.st26{fill:#00ADE4;}
	.st27{opacity:0.5;fill:#007897;}
	.st28{opacity:0.5;fill:#D1D3D4;}
	.st29{fill:none;stroke:#D1D3D4;stroke-width:0.4531;stroke-miterlimit:10;}
	.st30{opacity:0.1;fill:#00467F;}
	.st31{fill:#00467F;}
	.st32{opacity:0.5;fill:#E5E5E5;}
	.st33{fill:#E5E5E5;}
	.st34{fill:none;stroke:#16487D;stroke-width:1.0762;stroke-miterlimit:10;}
	.st35{fill:none;stroke:#16487D;stroke-width:0.8072;stroke-miterlimit:10;}
	.st36{fill:url(#SVGID_3_);}
	.st37{fill:url(#SVGID_4_);}
	.st38{fill:#333333;}
	.st39{filter:url(#Adobe_OpacityMaskFilter_1_);}
	.st40{opacity:0.75;mask:url(#SVGID_5_);}
	.st41{filter:url(#Adobe_OpacityMaskFilter_2_);}
	.st42{opacity:0.75;mask:url(#SVGID_6_);}
	.st43{fill:#989898;}
	.st44{opacity:0.5;fill:#22BBAD;}
	.st45{opacity:0.5;fill:#00ADE4;}
	.st46{fill:#808080;}
	.st47{fill:#F1F1F1;}
	.st48{opacity:0.5;fill:#FAA61A;}
	.st49{opacity:0.5;fill:#77C043;}
	.st50{opacity:0.3;fill:#E5E5E5;}
	.st51{opacity:0.6;}
	.st52{fill:#666666;}
	.st53{fill:#CC5E6E;}
	.st54{fill:#DD6672;}
	.st55{fill:#E06E7E;}
	.st56{fill:#F9B3C0;}
	.st57{fill:#EFACBB;}
	.st58{opacity:0.5;}
	.st59{fill:#EC909F;}
	.st60{opacity:0.1;fill:#808080;}
	.st61{opacity:0.7;}
	.st62{opacity:0.6;fill:none;stroke:#F1F1F1;stroke-width:1.175;stroke-miterlimit:10;}
	.st63{fill:none;stroke:#000000;stroke-width:1.4148;stroke-miterlimit:10;}
	.st64{opacity:0.2;fill:#B2B2B2;}
	.st65{fill:none;stroke:#E5E5E5;stroke-width:3.1138;stroke-miterlimit:10;}
	.st66{fill:#F6D3B5;}
	.st67{fill:#DEB188;}
	.st68{fill:#393738;}
	.st69{fill:#E8961F;}
	.st70{fill:#C4A835;}
	.st71{fill:#C66799;}
	.st72{fill:#03D8FE;}
	.st73{filter:url(#Adobe_OpacityMaskFilter_3_);}
	.st74{opacity:0.55;mask:url(#SVGID_7_);}
	.st75{fill:url(#SVGID_8_);}
	.st76{opacity:0.2;fill:#FFFFFF;}
	.st77{fill:url(#SVGID_9_);}
	.st78{fill:url(#SVGID_10_);}
	.st79{filter:url(#Adobe_OpacityMaskFilter_4_);}
	.st80{opacity:0.75;mask:url(#SVGID_11_);}
	.st81{filter:url(#Adobe_OpacityMaskFilter_5_);}
	.st82{opacity:0.75;mask:url(#SVGID_12_);}
</style>
<g>
	<path class="st53" d="M43.8,135.1c0,0,9.8,25.6,8.8,39.9c-1,14.3,18.2,12.6,16.8,2.8c-1.3-9.8,4.4-40.3,4.4-40.3L43.8,135.1z"/>
	<path class="st54" d="M112.9,98.5c-2.5,9.3-15.8,43.3-30.7,45c-14.8,1.7-25.8-8.3-25.8-8.3l20.7-27.1L112.9,98.5z"/>
	<path class="st55" d="M22.8,119.1c1.9,7,6.6,22.8,25.5,22.7s30.4-26.7,42-33.8L33,94.6L22.8,119.1z"/>
	<path class="st56" d="M20.2,126.4c-8.2-0.5-14.7-6.7-16.2-16.2S4,97,4,97S-5,90.9,4,82c0,0-8.9-13.4,6.1-22.9c0,0-1.2-8.7,7.6-14.7
		c0,0,0.5-15.9,16.8-18.9c0,0,1.8-12.4,15.4-10.3c0,0,6.6-10.8,18-5.7c0,0,7.6-12.6,22.7-5.1c0,0,14.9-9.7,26.5,0
		c0,0,17-6.1,21.2,6.7c0,0,10.8-2.7,14.8,9.8c0,0,6.7,1.7,7.4,7.6c0,0,8.8,1.9,8.8,10.1c0,0,9.8,5.2,7.8,15c0,0,7.4,9,2.4,20.5
		c0,0,5.1,13.2-11.1,16.9c0,0-9.5,25.3-29.8,10.3c0,0-6,5.6-16.8-2.7c0,0-3.9,5.5-11.3,7.6c0,0-18.6,13.5-41.8,2c0,0-13,4.5-19-3.9
		c0,0-4.4,11.9-16.5,10.6C33,114.8,27.7,126.8,20.2,126.4z"/>
	<g>
		<path class="st57" d="M138.5,101.2c0,0-1.5,0.6-4.1,1.7C137.1,102.5,138.5,101.2,138.5,101.2z"/>
		<path class="st57" d="M177.1,53.5c2-9.8-7.8-15-7.8-15c0-8.2-8.8-10.1-8.8-10.1c-0.7-5.9-7.4-7.6-7.4-7.6
			c-4-12.5-14.8-9.8-14.8-9.8c-4.2-12.8-21.2-6.7-21.2-6.7c-11.6-9.7-26.5,0-26.5,0C75.5-3.2,67.9,9.4,67.9,9.4
			c17.7-3.7,28.2,0.8,31.9,8.6c0,0,22.2-4.7,30.7,12.2c0,0,23.3,1.2,28.3,22c0,0,9.4,4,6.1,14.6c0,0,6.1,17.5-6.1,21.5
			c0,0-1.9,15.6-20.2,12.9c20.4,15,29.8-10.3,29.8-10.3c16.2-3.7,11.1-16.9,11.1-16.9C184.5,62.5,177.1,53.5,177.1,53.5z"/>
	</g>
	<g class="st58">
		<path class="st55" d="M67.8,9.1c5.7-1.6,11.8-2.6,18-2c3.1,0.3,6.2,1.1,9.1,2.7c2.9,1.6,5.5,4,7.1,7.1l-2.8-1.4
			c1.7-0.3,3.2-0.5,4.8-0.6c1.6-0.1,3.1-0.1,4.7,0c3.1,0.1,6.3,0.7,9.4,1.7c3.1,1,6,2.6,8.6,4.7c2.6,2.1,4.6,4.8,6.1,7.8l-2.2-1.4
			c1,0.1,1.8,0.2,2.6,0.3c0.8,0.1,1.7,0.3,2.5,0.5c1.7,0.4,3.3,0.8,4.9,1.4c3.2,1.1,6.3,2.7,9.2,4.7c2.8,2,5.3,4.6,7.3,7.5
			c2,2.9,3.3,6.2,4.1,9.6l-1.5-1.7c0.6,0.2,0.9,0.4,1.3,0.7c0.4,0.2,0.7,0.5,1.1,0.7c0.7,0.5,1.4,1.1,2,1.7c1.2,1.2,2.3,2.7,3,4.4
			c0.7,1.7,1,3.5,1,5.3c0,1.8-0.3,3.5-0.8,5l0-1.6c0.4,1.2,0.6,2.2,0.8,3.3c0.2,1.1,0.4,2.2,0.5,3.3c0.2,2.2,0.2,4.5-0.2,6.8
			c-0.4,2.3-1.3,4.7-2.8,6.7c-0.8,1-1.8,1.8-2.8,2.5c-1,0.7-2.2,1.1-3.3,1.5h0l1.3-1.6c-0.1,0.8-0.3,1.3-0.5,1.9
			c-0.2,0.6-0.4,1.2-0.7,1.7c-0.5,1.1-1.1,2.2-1.9,3.2c-1.4,2-3.3,3.7-5.5,4.8c-2.2,1.1-4.5,1.7-6.8,1.8c-2.3,0.1-4.6-0.1-6.8-0.6
			l0-0.3c2.2,0.2,4.5,0.1,6.6-0.3c2.1-0.4,4.2-1.2,5.9-2.4c1.7-1.2,3.1-2.8,4-4.6c0.5-0.9,0.9-1.8,1.2-2.8c0.1-0.5,0.3-1,0.4-1.5
			c0.1-0.5,0.2-1,0.2-1.4l0-1l1.3-0.6c1.7-0.6,3-1.6,4-2.9c0.9-1.3,1.5-3,1.7-4.8c0.2-1.8,0.1-3.7-0.1-5.6c-0.1-0.9-0.3-1.9-0.5-2.8
			c-0.2-0.9-0.5-1.9-0.8-2.7l-0.3-0.8l0.3-0.8c0.8-2.4,0.8-4.8,0-6.8c-0.4-1-1.1-1.9-1.9-2.8c-0.4-0.4-0.9-0.8-1.3-1.1
			c-0.2-0.2-0.5-0.3-0.7-0.5c-0.2-0.1-0.6-0.3-0.7-0.4l-1.2-0.5l-0.3-1.2c-0.7-2.8-1.8-5.6-3.4-7.9c-1.6-2.4-3.6-4.5-6-6.2
			c-2.4-1.7-5-3-7.9-4c-1.4-0.5-2.9-0.9-4.3-1.2c-0.7-0.2-1.5-0.3-2.2-0.4c-0.7-0.1-1.5-0.2-2.1-0.2l-1.5-0.1l-0.7-1.3
			c-1.2-2.3-2.8-4.5-4.8-6.1c-2-1.7-4.3-2.9-6.9-3.8c-2.5-0.8-5.3-1.3-8-1.4c-1.4-0.1-2.8-0.1-4.2,0c-1.4,0.1-2.8,0.2-4,0.5
			l-1.9,0.4l-0.9-1.8c-0.9-2.3-2.5-4.4-4.6-5.9c-2.1-1.6-4.8-2.6-7.5-3.3C79.8,8.6,73.8,8.8,68,9.7L67.8,9.1z"/>
	</g>
	<g>
		<path class="st59" d="M123.6,20.5c1-2.2,2.5-4.1,4.3-5.4c0.9-0.7,2-1.2,3-1.6c1.1-0.4,2.3-0.6,3.5-0.3l-0.1,0.6
			c-1-0.1-2,0.1-3,0.6c-0.9,0.5-1.8,1.1-2.6,1.8c-1.5,1.4-2.7,3.2-3.3,5.1L123.6,20.5z"/>
	</g>
	<g>
		<path class="st59" d="M148.8,37.2c0.6-1,1.2-2,2-2.8c0.8-0.8,1.7-1.6,2.7-2.1c1-0.6,2-1,3.1-1.3c1.1-0.3,2.1-0.4,3.2-0.4l0,0.3
			c-2.1,0.3-4.1,1.1-5.7,2.4c-0.8,0.6-1.5,1.3-2.1,2.2c-0.6,0.8-1,1.7-1.4,2.6L148.8,37.2z"/>
	</g>
	<g>
		<path class="st59" d="M167.2,68c0.9-0.2,1.9-0.4,2.8-0.3c1,0,1.9,0.2,2.8,0.6c0.9,0.3,1.7,0.8,2.4,1.5c0.7,0.6,1.3,1.3,1.7,2.1
			l-0.6,0.4c-0.5-0.6-1.1-1.2-1.8-1.7c-0.7-0.5-1.4-0.8-2.2-1c-0.8-0.2-1.5-0.3-2.3-0.2c-0.8,0.1-1.5,0.3-2.2,0.6L167.2,68z"/>
	</g>
	<g>
		<path class="st59" d="M96.8,18c-2.2-0.7-4.5-1.2-6.8-1.5c-2.3-0.3-4.6-0.2-6.9,0.1c-2.3,0.4-4.4,1.2-6.4,2.4
			c-2,1.2-3.8,2.7-5.4,4.5l-0.5-0.4c1.5-1.8,3.3-3.5,5.3-4.9c2-1.4,4.3-2.3,6.7-2.9c2.4-0.5,4.9-0.7,7.3-0.5
			c2.4,0.2,4.8,0.6,7.2,1.2L96.8,18z"/>
	</g>
	<g>
		<path class="st59" d="M129.5,32.3c-2,0.1-4,0-5.9-0.2c-1.9-0.1-3.8-0.2-5.7-0.2c-3.8,0-7.5,0.6-11,2c-3.5,1.4-6.7,3.5-9.5,6.1
			c-2.9,2.5-5.1,5.7-7.3,8.8l-0.7-0.4c2.1-3.2,4.3-6.5,7.2-9.2c2.8-2.7,6-5.1,9.7-6.6c3.6-1.5,7.6-2.2,11.5-2.4
			c3.9-0.2,7.8,0.2,11.5,0L129.5,32.3z"/>
	</g>
	<g>
		<path class="st59" d="M158.5,53.2c-5.2-1.6-10.6-2.4-16-2.4c-5.4,0-10.8,0.9-15.9,2.8c-5.1,1.9-9.8,4.8-13.9,8.3
			c-4.1,3.6-7.6,7.8-10.7,12.3l-0.4-0.3c3-4.6,6.4-9,10.5-12.7c4.1-3.7,8.8-6.8,14-8.9c5.2-2.1,10.8-3.1,16.3-3.2
			c5.6-0.1,11.2,0.7,16.6,2.1L158.5,53.2z"/>
	</g>
	<g>
		<path class="st59" d="M158.1,89.1c-2.8-2.4-6-4.4-9.4-5.8c-3.4-1.4-7.1-2.2-10.8-2.3c-3.7-0.1-7.5,0.6-10.9,1.9
			c-1.8,0.6-3.4,1.5-5,2.4c-0.8,0.5-1.6,1-2.4,1.5l-1.1,0.8l-0.6,0.4c-0.2,0.1-0.4,0.2-0.1,1l-1.3-1.6c0.7,0.5,0.9,0.3,1,0.1
			l0.6-0.4l1.1-0.9c0.8-0.6,1.6-1,2.4-1.6c1.6-1,3.3-1.8,5.1-2.5c3.6-1.4,7.4-2.1,11.2-2.1c3.8,0,7.7,0.6,11.3,1.9
			c3.6,1.2,7.1,3.1,10.2,5.4L158.1,89.1z"/>
	</g>
	<g>
		<path class="st59" d="M34.5,100.7c-2.8,0.3-5.7,0.4-8.5-0.3c-2.8-0.6-5.5-2-7.5-4.1c-2-2.1-3.3-4.8-3.7-7.7
			c-0.4-2.8,0.1-5.7,1.1-8.3l1.1,0.4c-0.9,2.5-1.3,5.2-0.8,7.7c0.4,2.6,1.6,5,3.4,6.7c1.8,1.8,4.2,3,6.7,3.5c2.5,0.5,5.2,0.4,7.8,0
			L34.5,100.7z"/>
	</g>
	<g>
		<path class="st59" d="M80.1,100.5c-2-1.9-3.3-4.1-4.4-6.4c-1.1-2.3-1.9-4.7-2.5-7.2c-0.6-2.5-0.9-5-0.9-7.5c0-2.5,0.4-5.1,1.3-7.5
			l0.7,0.2c-0.7,2.3-1,4.8-0.9,7.2c0.1,2.4,0.5,4.9,1.2,7.2c0.7,2.3,1.6,4.6,2.7,6.8c1.1,2.1,2.5,4.2,4.2,5.6L80.1,100.5z"/>
	</g>
	<g>
		<path class="st59" d="M51.6,95.1c-2.3-3.7-4.6-7.5-5.7-11.9c-0.6-2.2-0.8-4.4-0.7-6.6c0.1-2.2,0.6-4.4,1.3-6.5l0.7,0.2
			c-0.6,2.1-0.9,4.2-0.9,6.3c0,2.1,0.3,4.2,0.9,6.2c0.6,2,1.5,3.9,2.6,5.8c1.1,1.8,2.3,3.6,3.5,5.4L51.6,95.1z"/>
	</g>
</g>
</svg>
