<svg id="Layer_1" data-name="Layer 1" xmlns="http://www.w3.org/2000/svg" viewBox="0 0 149 49"><defs><style>.cls-1{fill:#fff;}</style></defs><title>Westat_logo_white</title><g id="Westat_logo" data-name="Westat logo"><path class="cls-1" d="M71.51,36.59H66.83L63.51,23.13h-.06l-3.2,13.46H55.62L50.38,16.26h4.86L58.35,30h.06L61.7,16.26h4.38L69.49,30h.06l.18-.89,3-12.8h3.92Z"/><path class="cls-1" d="M80.93,29.8l0,.74c0,1.78,1,3.23,2.91,3.23a2.56,2.56,0,0,0,2.66-2.37l4,.3a6.84,6.84,0,0,1-6.84,5.18c-4.51,0-7.44-3.14-7.44-7.61s2.64-8,7.32-8a6.86,6.86,0,0,1,5.51,2.67,9.62,9.62,0,0,1,1.54,5.9Zm5.31-2.58c-.09-1.63-.63-3.14-2.52-3.14s-2.67,1.42-2.82,3.14Z"/><path class="cls-1" d="M101.65,26a2.73,2.73,0,0,0-2.94-2c-.89,0-2.25.24-2.25,1.33,0,2.82,9-.38,9,6.4a4.72,4.72,0,0,1-2,3.89,8,8,0,0,1-4.68,1.24c-3.14,0-6.07-1.07-6.87-4.44l3.76-.54c.3,1.54,1.93,2,3.32,2,.83,0,2.64-.3,2.64-1.42s-.89-1.19-1.69-1.28a31.15,31.15,0,0,1-4.48-.89,4.26,4.26,0,0,1-3-4.06c0-3.7,3.23-5,6.43-5,3,0,4.89,1.13,5.93,3.95Z"/><path class="cls-1" d="M116.35,25h-3.23v6c0,2,.14,2.43,2,2.43a13.65,13.65,0,0,0,1.45-.11v3.29a13.08,13.08,0,0,1-2.72.32,6.53,6.53,0,0,1-3.89-1c-1.21-1-1.21-2.81-1.21-4.29V25H106.3V21.5h2.64l.38-4.41,3.8-.3V21.5h3.23Z"/><path class="cls-1" d="M127.9,36.59a9.34,9.34,0,0,1-.2-2.34,5.3,5.3,0,0,1-4.81,2.63c-2.66,0-4.74-1.42-4.74-4.26a4.7,4.7,0,0,1,3.38-4.48,25.23,25.23,0,0,1,6-.95v-.35a3.06,3.06,0,0,0-.39-2,2.26,2.26,0,0,0-1.78-.71c-1.39,0-2.6.71-2.6,2.19L118.6,26c.44-3.65,4-4.72,7.17-4.72a7.93,7.93,0,0,1,4.77,1.37c1.54,1.24,1.39,2.9,1.39,4.71v7a7.25,7.25,0,0,0,.3,2.26Zm-.41-7.21c-1.66.18-4.71.57-4.71,2.76a1.82,1.82,0,0,0,1.92,2,2.65,2.65,0,0,0,2.2-1.25,4.76,4.76,0,0,0,.59-2.9Z"/><path class="cls-1" d="M143.61,25h-3.23v6c0,2,.15,2.43,2,2.43a14,14,0,0,0,1.45-.11v3.29a13.17,13.17,0,0,1-2.73.32,6.52,6.52,0,0,1-3.88-1c-1.22-1-1.22-2.81-1.22-4.29V25h-2.46V21.5h2.64l.39-4.41,3.79-.3V21.5h3.23Z"/><path class="cls-1" d="M145.85,16.27a2.16,2.16,0,1,1-2.15,2.16A2.16,2.16,0,0,1,145.85,16.27Zm0,3.92a1.77,1.77,0,1,0-1.76-1.76A1.76,1.76,0,0,0,145.85,20.19Zm-.42-.61h-.49V17.27H146c.13,0,.87,0,.87.69a.64.64,0,0,1-.42.62l.42,1h-.52l-.37-.92h-.57Zm0-1.31H146c.16,0,.43,0,.43-.32,0-.13-.09-.3-.39-.3h-.56Z"/><polygon class="cls-1" points="42.6 5.14 19.41 37.15 23.26 43.86 45.52 5.14 42.6 5.14"/><polygon class="cls-1" points="37.21 5.14 35.45 5.14 15.6 30.53 29.71 5.14 1 5.14 19.41 37.15 37.21 5.14"/></g></svg>